<svg width="104" height="18" viewBox="0 0 104 18" fill="none" xmlns="http://www.w3.org/2000/svg">
<path d="M3.27 13.08C2.38333 13.08 1.67333 12.9133 1.14 12.58C0.606667 12.24 0.34 11.7233 0.34 11.03C0.34 10.6633 0.403333 10.3833 0.53 10.19C0.656667 9.99667 0.843333 9.9 1.09 9.9C1.27 9.9 1.41667 9.94667 1.53 10.04C1.64333 10.1333 1.7 10.2533 1.7 10.4C1.7 10.5333 1.69 10.65 1.67 10.75C1.67 10.7767 1.66333 10.8233 1.65 10.89C1.64333 10.9567 1.64 11.0267 1.64 11.1C1.64 11.4 1.79 11.6233 2.09 11.77C2.39667 11.9167 2.82333 11.99 3.37 11.99C3.93667 11.99 4.38 11.89 4.7 11.69C5.02 11.4833 5.18 11.1967 5.18 10.83C5.18 10.6033 5.10667 10.41 4.96 10.25C4.81333 10.0833 4.63 9.94667 4.41 9.84C4.19 9.72667 3.88 9.59 3.48 9.43C2.96667 9.23 2.54667 9.04 2.22 8.86C1.9 8.68 1.62333 8.43667 1.39 8.13C1.16333 7.81667 1.05 7.43 1.05 6.97C1.05 6.49 1.17667 6.06333 1.43 5.69C1.69 5.31667 2.06 5.02667 2.54 4.82C3.02667 4.61333 3.59667 4.51 4.25 4.51C4.73667 4.51 5.18333 4.58333 5.59 4.73C5.99667 4.87 6.32 5.08667 6.56 5.38C6.80667 5.67333 6.93 6.03333 6.93 6.46C6.93 6.88 6.86667 7.19667 6.74 7.41C6.61333 7.62333 6.42667 7.73 6.18 7.73C6.00667 7.73 5.86 7.67667 5.74 7.57C5.62667 7.46333 5.57 7.33667 5.57 7.19C5.57 7.06333 5.58 6.94667 5.6 6.84C5.62 6.64 5.63 6.51333 5.63 6.46C5.63 6.18 5.49333 5.96667 5.22 5.82C4.94667 5.67333 4.60667 5.6 4.2 5.6C3.62667 5.6 3.18667 5.70667 2.88 5.92C2.58 6.12667 2.43 6.42 2.43 6.8C2.43 7.05333 2.50667 7.27 2.66 7.45C2.82 7.63 3.01667 7.78 3.25 7.9C3.48333 8.02 3.81 8.16333 4.23 8.33C4.73667 8.53667 5.14333 8.72333 5.45 8.89C5.75667 9.05667 6.01667 9.28333 6.23 9.57C6.45 9.85667 6.56 10.21 6.56 10.63C6.56 11.4167 6.26 12.0233 5.66 12.45C5.06667 12.87 4.27 13.08 3.27 13.08ZM7.49512 10.7344C7.49512 10.3893 7.55859 10.0605 7.68555 9.74805C7.8125 9.43555 8.00293 9.16048 8.25684 8.92285C8.51074 8.68522 8.8265 8.49642 9.2041 8.35645C9.58171 8.21322 10.0195 8.1416 10.5176 8.1416C10.9863 8.1416 11.4046 8.20508 11.7725 8.33203C12.1403 8.45573 12.4528 8.63639 12.71 8.87402C12.9671 9.11165 13.1624 9.40299 13.2959 9.74805C13.4326 10.0898 13.501 10.4805 13.501 10.9199H8.56445C8.59375 11.1543 8.66862 11.3626 8.78906 11.5449C8.91276 11.7272 9.06901 11.8818 9.25781 12.0088C9.44661 12.1325 9.65983 12.2269 9.89746 12.292C10.1383 12.3571 10.389 12.3896 10.6494 12.3896C10.861 12.3896 11.0758 12.3734 11.2939 12.3408C11.5153 12.305 11.7236 12.2578 11.9189 12.1992C12.1143 12.1406 12.2884 12.0755 12.4414 12.0039C12.5944 11.929 12.7116 11.8525 12.793 11.7744H12.9785L13.4375 12.2725C13.1022 12.5589 12.6937 12.777 12.2119 12.9268C11.7334 13.0732 11.2044 13.1465 10.625 13.1465C10.1204 13.1465 9.67285 13.0846 9.28223 12.9609C8.89486 12.8372 8.56771 12.6663 8.30078 12.4482C8.03711 12.2301 7.83691 11.9746 7.7002 11.6816C7.56348 11.3887 7.49512 11.0729 7.49512 10.7344ZM13.833 11.2617C13.8395 11.2129 13.8444 11.1608 13.8477 11.1055C13.8509 11.0469 13.8525 10.985 13.8525 10.9199C13.8525 10.6432 13.8232 10.3796 13.7646 10.1289C13.7093 9.875 13.6263 9.64062 13.5156 9.42578C13.4082 9.20768 13.2747 9.00911 13.1152 8.83008C12.9557 8.65104 12.7751 8.49805 12.5732 8.37109C12.7881 8.45573 12.985 8.57292 13.1641 8.72266C13.3464 8.86914 13.5026 9.04818 13.6328 9.25977C13.763 9.47135 13.8639 9.71549 13.9355 9.99219C14.0104 10.2689 14.0479 10.5781 14.0479 10.9199C14.0479 10.946 14.0462 10.9785 14.043 11.0176C14.043 11.0566 14.0413 11.1006 14.0381 11.1494C14.0348 11.1982 14.0299 11.2487 14.0234 11.3008C14.0202 11.3496 14.0153 11.3984 14.0088 11.4473H9.39453C9.45638 11.5514 9.57031 11.6589 9.73633 11.7695C9.90234 11.877 10.1172 11.9681 10.3809 12.043C10.2181 12.043 10.0651 12.0234 9.92188 11.9844C9.7819 11.9453 9.65332 11.8916 9.53613 11.8232C9.4222 11.7549 9.32129 11.6735 9.2334 11.5791C9.14876 11.4814 9.08203 11.3757 9.0332 11.2617H13.833ZM12.373 10.3096C12.321 10.085 12.2396 9.88477 12.1289 9.70898C12.0215 9.5332 11.888 9.38672 11.7285 9.26953C11.569 9.14909 11.3867 9.05794 11.1816 8.99609C10.9766 8.93099 10.752 8.89844 10.5078 8.89844C10.2441 8.89844 10.0033 8.93424 9.78516 9.00586C9.57031 9.07422 9.38151 9.17188 9.21875 9.29883C9.05599 9.42253 8.9209 9.57064 8.81348 9.74316C8.70931 9.91569 8.63607 10.1045 8.59375 10.3096H12.373ZM9.03809 10.0996C9.15853 9.83268 9.34733 9.62272 9.60449 9.46973C9.86491 9.31673 10.166 9.24023 10.5078 9.24023C10.6478 9.24023 10.7829 9.25163 10.9131 9.27441C11.0465 9.2972 11.1686 9.33301 11.2793 9.38184C11.3932 9.42741 11.4925 9.48438 11.5771 9.55273C11.6618 9.62109 11.7285 9.69922 11.7773 9.78711C11.5918 9.66341 11.3932 9.57227 11.1816 9.51367C10.9701 9.45508 10.7422 9.42578 10.498 9.42578C10.2148 9.42578 9.96582 9.48438 9.75098 9.60156C9.53613 9.71875 9.37337 9.88477 9.2627 10.0996H9.03809ZM8.08594 12.7852C8.40169 13.0098 8.7679 13.1839 9.18457 13.3076C9.60449 13.4313 10.0846 13.4932 10.625 13.4932C11.1523 13.4932 11.6455 13.4329 12.1045 13.3125C12.5667 13.1921 12.9834 13.0081 13.3545 12.7607L13.4863 12.9023C13.0664 13.1855 12.6237 13.3857 12.1582 13.5029C11.696 13.6201 11.2109 13.6787 10.7031 13.6787C10.0423 13.6787 9.49382 13.599 9.05762 13.4395C8.62467 13.2799 8.30078 13.0618 8.08594 12.7852ZM15.1221 10.7344C15.1221 10.3893 15.1953 10.0605 15.3418 9.74805C15.4915 9.43555 15.6999 9.16048 15.9668 8.92285C16.237 8.68522 16.5609 8.49642 16.9385 8.35645C17.3193 8.21322 17.7393 8.1416 18.1982 8.1416C18.5824 8.1416 18.929 8.19368 19.2383 8.29785C19.5508 8.39876 19.8389 8.54199 20.1025 8.72754V8.29297H21.1523V9.80664H20.1514C20.0602 9.69271 19.9479 9.58203 19.8145 9.47461C19.681 9.36393 19.5296 9.26628 19.3604 9.18164C19.1943 9.09701 19.012 9.02865 18.8135 8.97656C18.6149 8.92448 18.4049 8.89844 18.1836 8.89844C17.9004 8.89844 17.6367 8.94401 17.3926 9.03516C17.1484 9.1263 16.9368 9.25326 16.7578 9.41602C16.5788 9.57878 16.4372 9.77083 16.333 9.99219C16.2321 10.2135 16.1816 10.4544 16.1816 10.7148C16.1816 10.985 16.2354 11.2243 16.3428 11.4326C16.4535 11.641 16.6048 11.8167 16.7969 11.96C16.9889 12.0999 17.2168 12.2074 17.4805 12.2822C17.7441 12.3538 18.0306 12.3896 18.3398 12.3896C18.8411 12.3896 19.2839 12.3099 19.668 12.1504C20.0553 11.9909 20.4004 11.7451 20.7031 11.4131L21.2207 12.0039C20.8659 12.3848 20.4541 12.6712 19.9854 12.8633C19.5166 13.0521 18.9762 13.1465 18.3643 13.1465C17.8499 13.1465 17.391 13.0895 16.9873 12.9756C16.5869 12.8584 16.2484 12.694 15.9717 12.4824C15.695 12.2708 15.4834 12.0169 15.3369 11.7207C15.1937 11.4245 15.1221 11.0957 15.1221 10.7344ZM20.3906 10.1484H21.5039V8.49805H21.6992V10.334H20.3906V10.1484ZM16.5332 10.7148C16.5332 10.4967 16.5755 10.2982 16.6602 10.1191C16.7448 9.93685 16.8604 9.7806 17.0068 9.65039C17.1566 9.52018 17.3324 9.41927 17.5342 9.34766C17.736 9.27604 17.9541 9.24023 18.1885 9.24023C18.3285 9.24023 18.4701 9.25326 18.6133 9.2793C18.7565 9.30534 18.8916 9.34277 19.0186 9.3916C19.1455 9.43717 19.2594 9.49251 19.3604 9.55762C19.4613 9.62272 19.541 9.69434 19.5996 9.77246C19.4043 9.66829 19.1943 9.58529 18.9697 9.52344C18.7484 9.45833 18.4945 9.42578 18.208 9.42578C17.9801 9.42578 17.7751 9.46159 17.5928 9.5332C17.4105 9.60156 17.2542 9.69434 17.124 9.81152C16.9971 9.92871 16.8994 10.0654 16.8311 10.2217C16.7627 10.3779 16.7285 10.5423 16.7285 10.7148C16.7285 10.8874 16.7546 11.0404 16.8066 11.1738C16.862 11.304 16.9401 11.4229 17.041 11.5303C17.1419 11.6344 17.2656 11.7272 17.4121 11.8086C17.5586 11.8867 17.7246 11.9583 17.9102 12.0234C17.6953 12.0039 17.5016 11.9583 17.3291 11.8867C17.1598 11.8151 17.0166 11.724 16.8994 11.6133C16.7822 11.4993 16.6911 11.3675 16.626 11.2178C16.5641 11.0648 16.5332 10.8971 16.5332 10.7148ZM15.8203 12.7754C15.9766 12.8893 16.1507 12.9902 16.3428 13.0781C16.5348 13.1693 16.7399 13.2441 16.958 13.3027C17.1794 13.3646 17.4089 13.4118 17.6465 13.4443C17.8841 13.4769 18.125 13.4932 18.3691 13.4932C18.6621 13.4932 18.9486 13.4688 19.2285 13.4199C19.5117 13.3743 19.777 13.3076 20.0244 13.2197C20.2718 13.1318 20.498 13.026 20.7031 12.9023C20.9082 12.7754 21.0824 12.6338 21.2256 12.4775L21.3672 12.6045C21.0124 12.9658 20.5811 13.2344 20.0732 13.4102C19.5687 13.5892 18.9974 13.6787 18.3594 13.6787C18.0957 13.6787 17.8337 13.6592 17.5732 13.6201C17.3128 13.5811 17.0687 13.5225 16.8408 13.4443C16.613 13.3695 16.4095 13.2751 16.2305 13.1611C16.0547 13.0505 15.918 12.9219 15.8203 12.7754ZM23.5498 11.9062C23.4847 11.7402 23.4359 11.5596 23.4033 11.3643C23.374 11.1689 23.3594 10.9541 23.3594 10.7197V9.11816H22.5293V8.28809H24.4092V10.3047C24.4092 10.5684 24.4206 10.8044 24.4434 11.0127C24.4694 11.2178 24.5052 11.3789 24.5508 11.4961C24.6094 11.6458 24.6859 11.7728 24.7803 11.877C24.8747 11.9811 24.9805 12.0658 25.0977 12.1309C25.2181 12.196 25.3467 12.2432 25.4834 12.2725C25.6234 12.3018 25.7682 12.3164 25.918 12.3164C26.0775 12.3164 26.2419 12.2871 26.4111 12.2285C26.5837 12.1699 26.7497 12.0885 26.9092 11.9844C27.0687 11.8802 27.2168 11.7565 27.3535 11.6133C27.4935 11.4701 27.6107 11.3154 27.7051 11.1494V9.11816H26.6309V8.28809H28.7549V12.2676H29.585V13H27.7051V12.2578C27.6009 12.3848 27.474 12.502 27.3242 12.6094C27.1777 12.7168 27.0133 12.8112 26.8311 12.8926C26.652 12.9707 26.4583 13.0326 26.25 13.0781C26.0417 13.1237 25.8252 13.1465 25.6006 13.1465C25.1156 13.1465 24.694 13.0456 24.3359 12.8438C23.9811 12.6387 23.7191 12.3262 23.5498 11.9062ZM29.0967 8.53711H29.292V11.9746H29.0967V8.53711ZM24.7607 8.53711H24.9561V10.5439C24.9561 10.7979 24.9805 11.0094 25.0293 11.1787C25.0781 11.348 25.1432 11.4863 25.2246 11.5938C25.306 11.7012 25.3988 11.7842 25.5029 11.8428C25.6071 11.9014 25.7145 11.9469 25.8252 11.9795C25.4834 11.9762 25.2197 11.8639 25.0342 11.6426C24.8519 11.418 24.7607 11.0697 24.7607 10.5977V8.53711ZM26.9238 9.45996H27.5V9.64551H26.9238V9.45996ZM22.8223 9.45996H23.1543V9.64551H22.8223V9.45996ZM29.9365 13.3418V12.541H30.1318V13.5273H27.998V13.3418H29.9365ZM23.6035 12.6729C23.8574 12.9463 24.1439 13.1497 24.4629 13.2832C24.7819 13.4199 25.1628 13.4883 25.6055 13.4883C25.9993 13.4883 26.3509 13.4362 26.6602 13.332C26.9727 13.2311 27.2559 13.0928 27.5098 12.917V13.1416C27.2233 13.3271 26.9255 13.4622 26.6162 13.5469C26.307 13.6315 25.9717 13.6738 25.6104 13.6738C25.1188 13.6738 24.7005 13.5876 24.3555 13.415C24.0104 13.2458 23.7598 12.9984 23.6035 12.6729ZM31.333 12.2676H32.4072V9.11816H31.333V8.28809H33.457V9.10352C33.5579 8.97331 33.6784 8.84961 33.8184 8.73242C33.9616 8.61523 34.1227 8.5127 34.3018 8.4248C34.4808 8.33691 34.6761 8.26855 34.8877 8.21973C35.0993 8.16764 35.3255 8.1416 35.5664 8.1416C35.638 8.1416 35.7275 8.14486 35.835 8.15137C35.9424 8.15462 36.0449 8.16439 36.1426 8.18066V9.1377C36.0286 9.11165 35.9163 9.09375 35.8057 9.08398C35.695 9.07422 35.5876 9.06934 35.4834 9.06934C35.223 9.06934 34.9756 9.11165 34.7412 9.19629C34.5101 9.27767 34.3034 9.39811 34.1211 9.55762C33.9388 9.71387 33.7891 9.90592 33.6719 10.1338C33.5547 10.3617 33.4831 10.6221 33.457 10.915V12.2676H35.2148V13H31.333V12.2676ZM33.7988 11.3545C33.7988 11.0485 33.8379 10.7751 33.916 10.5342C33.9941 10.2933 34.1048 10.0898 34.248 9.92383C34.3945 9.75781 34.5719 9.63086 34.7803 9.54297C34.9886 9.45508 35.223 9.41113 35.4834 9.41113C35.5387 9.41113 35.6087 9.41602 35.6934 9.42578C35.778 9.43229 35.8659 9.44368 35.957 9.45996C36.0514 9.47624 36.1458 9.4974 36.2402 9.52344C36.3346 9.54622 36.4193 9.57389 36.4941 9.60645V8.4541H36.6895V9.85059C36.5983 9.81152 36.499 9.77734 36.3916 9.74805C36.2874 9.71549 36.18 9.68783 36.0693 9.66504C35.9619 9.64225 35.8577 9.62598 35.7568 9.61621C35.6559 9.60319 35.5648 9.59668 35.4834 9.59668C35.2458 9.59668 35.0342 9.63574 34.8486 9.71387C34.6663 9.79199 34.5117 9.9043 34.3848 10.0508C34.2578 10.1973 34.1602 10.3763 34.0918 10.5879C34.0267 10.7995 33.9941 11.0387 33.9941 11.3057V11.9746H33.7988V11.3545ZM31.626 9.45996H32.2021V9.64551H31.626V9.45996ZM35.5664 13.3418V12.541H35.7617V13.5273H31.626V13.3418H35.5664ZM38.667 6.0957H39.8633V7.07227H38.667V6.0957ZM38.96 7.41406H40.2148V6.36914H40.4102V7.59961H38.96V7.41406ZM37.6416 12.2676H38.96L38.8135 9.11816H37.6416V8.28809H39.8633V12.2676H40.9863V13H37.6416V12.2676ZM40.2051 8.53711H40.4004V11.9746H40.2051V8.53711ZM37.9346 9.45996H38.6084V9.64551H37.9346V9.45996ZM41.3379 13.3418V12.541H41.5332V13.5273H37.9346V13.3418H41.3379ZM43.1201 9.11816H42.0459V8.28809H43.1201V7.30176L44.1699 6.8623V8.28809H46.5967V9.11816H44.1699V11.4473C44.1699 11.6914 44.2464 11.8737 44.3994 11.9941C44.5524 12.1113 44.7607 12.1699 45.0244 12.1699H46.4014V13H45.0244C44.7607 13 44.5133 12.9723 44.2822 12.917C44.0511 12.8584 43.8493 12.7624 43.6768 12.6289C43.5042 12.4922 43.3675 12.3132 43.2666 12.0918C43.1689 11.8672 43.1201 11.5872 43.1201 11.252V9.11816ZM44.5215 7.13086L44.7168 7.04297V7.99512H44.5215V7.13086ZM44.5117 9.40625H46.9482V8.50781H47.1436V9.5918H44.707V11.8428C44.5964 11.8135 44.5312 11.7484 44.5117 11.6475V9.40625ZM42.3389 9.45996H42.9248V9.64551H42.3389V9.45996ZM43.0908 12.5801C43.195 12.7266 43.3105 12.8486 43.4375 12.9463C43.5677 13.0439 43.7126 13.1221 43.8721 13.1807C44.0316 13.2393 44.2057 13.2799 44.3945 13.3027C44.5833 13.3288 44.79 13.3418 45.0146 13.3418H46.7529V12.3896H46.9482V13.5273H44.9902C44.7396 13.5273 44.5117 13.5111 44.3066 13.4785C44.1016 13.446 43.9193 13.3923 43.7598 13.3174C43.6035 13.2458 43.4684 13.1481 43.3545 13.0244C43.2438 12.904 43.1559 12.7559 43.0908 12.5801ZM50.8447 14.5723L51.5918 13.1807L48.8672 9.02051H47.8223V8.28809H51.1572V9.02051H50.1221L52.1387 12.165L53.8281 9.02051H52.6416V8.28809H55.8936V9.02051H54.9023L51.4746 15.3047H49.6045V14.5723H50.8447ZM51.7285 15.6465L55.1611 9.3623H56.2451V8.56152H56.4404V9.54785H55.2734L51.8506 15.832H49.8975V15.6465H51.7285ZM50.8105 9.3623H51.5088V8.56152H51.7041V9.54785H51.1572L52.2852 11.3057L52.1777 11.501L50.8105 9.3623ZM52.8809 9.3623H53.3887L53.291 9.54785H52.8809V9.3623ZM48.1152 9.3623H48.8232L48.9453 9.54785H48.1152V9.3623ZM67.2668 11.18C67.3668 11.14 67.4501 11.12 67.5168 11.12C67.6235 11.12 67.7035 11.16 67.7568 11.24C67.8101 11.32 67.8368 11.4233 67.8368 11.55C67.8368 11.75 67.7868 11.92 67.6868 12.06C67.5935 12.2 67.4301 12.3267 67.1968 12.44C66.8035 12.6267 66.2935 12.7767 65.6668 12.89C65.0401 12.9967 64.4235 13.05 63.8168 13.05C62.9768 13.05 62.2735 12.9567 61.7068 12.77C61.1401 12.5767 60.7168 12.3133 60.4368 11.98C60.1635 11.6467 60.0268 11.27 60.0268 10.85C60.0268 10.2767 60.2101 9.79 60.5768 9.39C60.9501 8.98333 61.4968 8.69 62.2168 8.51C61.8235 8.39667 61.5201 8.19667 61.3068 7.91C61.1001 7.62333 60.9968 7.30333 60.9968 6.95C60.9968 6.47 61.1468 6.04667 61.4468 5.68C61.7535 5.30667 62.1635 5.02 62.6768 4.82C63.1901 4.62 63.7535 4.52 64.3668 4.52C65.1935 4.52 65.8135 4.7 66.2268 5.06C66.6401 5.41333 66.8468 5.87333 66.8468 6.44C66.8468 6.83333 66.7735 7.15333 66.6268 7.4C66.4868 7.64 66.2835 7.76 66.0168 7.76C65.8301 7.76 65.6835 7.72 65.5768 7.64C65.4701 7.55333 65.4168 7.42667 65.4168 7.26C65.4168 7.14667 65.4335 7.02333 65.4668 6.89C65.5001 6.67 65.5168 6.52 65.5168 6.44C65.5168 6.2 65.4268 6.00667 65.2468 5.86C65.0668 5.70667 64.7668 5.63 64.3468 5.63C63.7801 5.63 63.3268 5.75 62.9868 5.99C62.6468 6.23 62.4768 6.55333 62.4768 6.96C62.4768 7.27333 62.6035 7.53333 62.8568 7.74C63.1168 7.94 63.5368 8.05 64.1168 8.07C64.2635 8.07667 64.3668 8.11 64.4268 8.17C64.4868 8.23 64.5168 8.33 64.5168 8.47C64.5168 8.91 64.3168 9.13333 63.9168 9.14C63.3635 9.15333 62.9035 9.23 62.5368 9.37C62.1768 9.51 61.9135 9.69 61.7468 9.91C61.5868 10.1233 61.5068 10.3533 61.5068 10.6C61.5068 11.0133 61.7001 11.3267 62.0868 11.54C62.4735 11.7467 63.0868 11.85 63.9268 11.85C64.4801 11.85 65.0635 11.7867 65.6768 11.66C66.2968 11.5267 66.8268 11.3667 67.2668 11.18ZM66.7676 12.2676H67.6562L69.7998 10.6367L67.9785 9.02051H66.8604V8.28809H70.0439V9.02051H69.3701L70.6104 10.1436L72.0215 9.02051H71.123V8.28809H74.043V9.02051H73.3203L71.1426 10.6709L72.9395 12.2676H74.0918V13H70.835V12.2676H71.5527L70.3271 11.1543L68.9746 12.2676H69.873V13H66.7676V12.2676ZM73.5107 9.3623H74.3945V8.56152H74.5898V9.54785H73.5742L72.0312 10.7002L73.4766 11.9746H73.2031L71.7383 10.6904L73.5107 9.3623ZM70.3955 9.35254V8.56152H70.5908V9.36719L70.9082 9.65527L70.7715 9.77246L70.3076 9.35254H70.3955ZM67.1777 9.3623H68.0664L68.2715 9.54785H67.1777V9.3623ZM70.4639 11.5352L70.6055 11.6621L70.2246 11.9746H69.9316L70.4639 11.5352ZM74.4434 13.3418V12.541H74.6387V13.5273H71.1279V13.3418H74.4434ZM70.2246 13.3418V12.541H70.4199V13.5273H67.0605V13.3418H70.2246ZM76.7139 14.5723V9.11816H75.6396V8.28809H77.7637V8.9375C78.0078 8.6901 78.304 8.49642 78.6523 8.35645C79.0007 8.21322 79.3799 8.1416 79.79 8.1416C80.2393 8.1416 80.638 8.20996 80.9863 8.34668C81.3346 8.48014 81.6276 8.65918 81.8652 8.88379C82.1029 9.10514 82.2835 9.35905 82.4072 9.64551C82.5309 9.93197 82.5928 10.2282 82.5928 10.5342C82.5928 10.9313 82.5244 11.2861 82.3877 11.5986C82.2542 11.9079 82.0654 12.1699 81.8213 12.3848C81.5771 12.5996 81.2858 12.764 80.9473 12.8779C80.6087 12.9919 80.2344 13.0488 79.8242 13.0488C79.401 13.0488 79.012 12.9854 78.6572 12.8584C78.3057 12.7282 78.0078 12.541 77.7637 12.2969V14.5723H79.082V15.3047H75.8838V14.5723H76.7139ZM78.0908 12.9902C78.3252 13.1204 78.5954 13.2197 78.9014 13.2881C79.2106 13.3564 79.5215 13.3906 79.834 13.3906C80.2637 13.3906 80.6673 13.3288 81.0449 13.2051C81.4225 13.0846 81.7513 12.9056 82.0312 12.668C82.3145 12.4271 82.5374 12.1292 82.7002 11.7744C82.863 11.4163 82.9443 11.0029 82.9443 10.5342C82.9443 10.3324 82.915 10.1257 82.8564 9.91406C82.7979 9.69922 82.7148 9.49251 82.6074 9.29395C82.5 9.09212 82.3682 8.90332 82.2119 8.72754C82.0557 8.55176 81.8799 8.40039 81.6846 8.27344C81.9287 8.38411 82.1419 8.52734 82.3242 8.70312C82.5098 8.87565 82.6628 9.06445 82.7832 9.26953C82.9069 9.47461 82.9997 9.68783 83.0615 9.90918C83.1234 10.1273 83.1543 10.3356 83.1543 10.5342C83.1543 10.9932 83.0778 11.4098 82.9248 11.7842C82.7718 12.1585 82.5505 12.4792 82.2607 12.7461C81.9743 13.0098 81.6243 13.2132 81.2109 13.3564C80.8008 13.5029 80.3369 13.5762 79.8193 13.5762C79.6891 13.5762 79.5557 13.568 79.4189 13.5518C79.2822 13.5387 79.1471 13.5192 79.0137 13.4932C78.8802 13.4671 78.75 13.4362 78.623 13.4004C78.4993 13.3646 78.387 13.3239 78.2861 13.2783V14.3281H78.0908V12.9902ZM77.7637 10.6318C77.7637 10.8923 77.8174 11.125 77.9248 11.3301C78.0355 11.5352 78.1852 11.7093 78.374 11.8525C78.5628 11.9958 78.7826 12.1064 79.0332 12.1846C79.2871 12.2594 79.5589 12.2969 79.8486 12.2969C80.1058 12.2969 80.3369 12.2562 80.542 12.1748C80.7503 12.0934 80.9277 11.9779 81.0742 11.8281C81.2207 11.6784 81.333 11.4977 81.4111 11.2861C81.4925 11.0713 81.5332 10.8337 81.5332 10.5732C81.5332 10.3258 81.486 10.0996 81.3916 9.89453C81.3005 9.6862 81.1735 9.50879 81.0107 9.3623C80.848 9.21582 80.6559 9.10189 80.4346 9.02051C80.2165 8.93913 79.9805 8.89844 79.7266 8.89844C79.4499 8.89844 79.1911 8.93913 78.9502 9.02051C78.7126 9.10189 78.5059 9.21908 78.3301 9.37207C78.1543 9.52181 78.016 9.7041 77.915 9.91895C77.8141 10.1305 77.7637 10.3682 77.7637 10.6318ZM78.1152 10.627C78.1152 10.4414 78.1527 10.264 78.2275 10.0947C78.3057 9.92546 78.4147 9.77734 78.5547 9.65039C78.6947 9.52344 78.8623 9.42253 79.0576 9.34766C79.2529 9.27279 79.471 9.23535 79.7119 9.23535C79.9691 9.23535 80.1969 9.28092 80.3955 9.37207C80.5941 9.45996 80.7454 9.57715 80.8496 9.72363C80.6543 9.59993 80.4622 9.52018 80.2734 9.48438C80.0879 9.44531 79.9007 9.42578 79.7119 9.42578C79.5003 9.42578 79.3083 9.45996 79.1357 9.52832C78.9665 9.59342 78.82 9.68132 78.6963 9.79199C78.5758 9.89941 78.4831 10.0247 78.418 10.168C78.3529 10.3112 78.3203 10.4593 78.3203 10.6123C78.3203 10.9085 78.3952 11.1641 78.5449 11.3789C78.6947 11.5938 78.9372 11.7793 79.2725 11.9355C79.0999 11.8997 78.9421 11.8444 78.7988 11.7695C78.6589 11.6914 78.5368 11.597 78.4326 11.4863C78.3317 11.3724 78.2536 11.2438 78.1982 11.1006C78.1429 10.9574 78.1152 10.7995 78.1152 10.627ZM75.9326 9.45996H76.5088V9.64551H75.9326V9.45996ZM79.4336 15.6465V14.8457H79.6289V15.832H76.1768V15.6465H79.4336ZM84.1943 10.7344C84.1943 10.3893 84.2578 10.0605 84.3848 9.74805C84.5117 9.43555 84.7021 9.16048 84.9561 8.92285C85.21 8.68522 85.5257 8.49642 85.9033 8.35645C86.2809 8.21322 86.7188 8.1416 87.2168 8.1416C87.6855 8.1416 88.1038 8.20508 88.4717 8.33203C88.8395 8.45573 89.152 8.63639 89.4092 8.87402C89.6663 9.11165 89.8617 9.40299 89.9951 9.74805C90.1318 10.0898 90.2002 10.4805 90.2002 10.9199H85.2637C85.293 11.1543 85.3678 11.3626 85.4883 11.5449C85.612 11.7272 85.7682 11.8818 85.957 12.0088C86.1458 12.1325 86.359 12.2269 86.5967 12.292C86.8376 12.3571 87.0882 12.3896 87.3486 12.3896C87.5602 12.3896 87.7751 12.3734 87.9932 12.3408C88.2145 12.305 88.4229 12.2578 88.6182 12.1992C88.8135 12.1406 88.9876 12.0755 89.1406 12.0039C89.2936 11.929 89.4108 11.8525 89.4922 11.7744H89.6777L90.1367 12.2725C89.8014 12.5589 89.3929 12.777 88.9111 12.9268C88.4326 13.0732 87.9036 13.1465 87.3242 13.1465C86.8197 13.1465 86.3721 13.0846 85.9814 12.9609C85.5941 12.8372 85.2669 12.6663 85 12.4482C84.7363 12.2301 84.5361 11.9746 84.3994 11.6816C84.2627 11.3887 84.1943 11.0729 84.1943 10.7344ZM90.5322 11.2617C90.5387 11.2129 90.5436 11.1608 90.5469 11.1055C90.5501 11.0469 90.5518 10.985 90.5518 10.9199C90.5518 10.6432 90.5225 10.3796 90.4639 10.1289C90.4085 9.875 90.3255 9.64062 90.2148 9.42578C90.1074 9.20768 89.974 9.00911 89.8145 8.83008C89.6549 8.65104 89.4743 8.49805 89.2725 8.37109C89.4873 8.45573 89.6842 8.57292 89.8633 8.72266C90.0456 8.86914 90.2018 9.04818 90.332 9.25977C90.4622 9.47135 90.5632 9.71549 90.6348 9.99219C90.7096 10.2689 90.7471 10.5781 90.7471 10.9199C90.7471 10.946 90.7454 10.9785 90.7422 11.0176C90.7422 11.0566 90.7406 11.1006 90.7373 11.1494C90.734 11.1982 90.7292 11.2487 90.7227 11.3008C90.7194 11.3496 90.7145 11.3984 90.708 11.4473H86.0938C86.1556 11.5514 86.2695 11.6589 86.4355 11.7695C86.6016 11.877 86.8164 11.9681 87.0801 12.043C86.9173 12.043 86.7643 12.0234 86.6211 11.9844C86.4811 11.9453 86.3525 11.8916 86.2354 11.8232C86.1214 11.7549 86.0205 11.6735 85.9326 11.5791C85.848 11.4814 85.7812 11.3757 85.7324 11.2617H90.5322ZM89.0723 10.3096C89.0202 10.085 88.9388 9.88477 88.8281 9.70898C88.7207 9.5332 88.5872 9.38672 88.4277 9.26953C88.2682 9.14909 88.0859 9.05794 87.8809 8.99609C87.6758 8.93099 87.4512 8.89844 87.207 8.89844C86.9434 8.89844 86.7025 8.93424 86.4844 9.00586C86.2695 9.07422 86.0807 9.17188 85.918 9.29883C85.7552 9.42253 85.6201 9.57064 85.5127 9.74316C85.4085 9.91569 85.3353 10.1045 85.293 10.3096H89.0723ZM85.7373 10.0996C85.8577 9.83268 86.0465 9.62272 86.3037 9.46973C86.5641 9.31673 86.8652 9.24023 87.207 9.24023C87.347 9.24023 87.4821 9.25163 87.6123 9.27441C87.7458 9.2972 87.8678 9.33301 87.9785 9.38184C88.0924 9.42741 88.1917 9.48438 88.2764 9.55273C88.361 9.62109 88.4277 9.69922 88.4766 9.78711C88.291 9.66341 88.0924 9.57227 87.8809 9.51367C87.6693 9.45508 87.4414 9.42578 87.1973 9.42578C86.9141 9.42578 86.665 9.48438 86.4502 9.60156C86.2354 9.71875 86.0726 9.88477 85.9619 10.0996H85.7373ZM84.7852 12.7852C85.1009 13.0098 85.4671 13.1839 85.8838 13.3076C86.3037 13.4313 86.7839 13.4932 87.3242 13.4932C87.8516 13.4932 88.3447 13.4329 88.8037 13.3125C89.266 13.1921 89.6826 13.0081 90.0537 12.7607L90.1855 12.9023C89.7656 13.1855 89.3229 13.3857 88.8574 13.5029C88.3952 13.6201 87.9102 13.6787 87.4023 13.6787C86.7415 13.6787 86.193 13.599 85.7568 13.4395C85.3239 13.2799 85 13.0618 84.7852 12.7852ZM91.9678 12.2676H93.042V9.11816H91.9678V8.28809H94.0918V9.10352C94.1927 8.97331 94.3132 8.84961 94.4531 8.73242C94.5964 8.61523 94.7575 8.5127 94.9365 8.4248C95.1156 8.33691 95.3109 8.26855 95.5225 8.21973C95.734 8.16764 95.9603 8.1416 96.2012 8.1416C96.2728 8.1416 96.3623 8.14486 96.4697 8.15137C96.5771 8.15462 96.6797 8.16439 96.7773 8.18066V9.1377C96.6634 9.11165 96.5511 9.09375 96.4404 9.08398C96.3298 9.07422 96.2223 9.06934 96.1182 9.06934C95.8577 9.06934 95.6104 9.11165 95.376 9.19629C95.1449 9.27767 94.9382 9.39811 94.7559 9.55762C94.5736 9.71387 94.4238 9.90592 94.3066 10.1338C94.1895 10.3617 94.1178 10.6221 94.0918 10.915V12.2676H95.8496V13H91.9678V12.2676ZM94.4336 11.3545C94.4336 11.0485 94.4727 10.7751 94.5508 10.5342C94.6289 10.2933 94.7396 10.0898 94.8828 9.92383C95.0293 9.75781 95.2067 9.63086 95.415 9.54297C95.6234 9.45508 95.8577 9.41113 96.1182 9.41113C96.1735 9.41113 96.2435 9.41602 96.3281 9.42578C96.4128 9.43229 96.5007 9.44368 96.5918 9.45996C96.6862 9.47624 96.7806 9.4974 96.875 9.52344C96.9694 9.54622 97.054 9.57389 97.1289 9.60645V8.4541H97.3242V9.85059C97.2331 9.81152 97.1338 9.77734 97.0264 9.74805C96.9222 9.71549 96.8148 9.68783 96.7041 9.66504C96.5967 9.64225 96.4925 9.62598 96.3916 9.61621C96.2907 9.60319 96.1995 9.59668 96.1182 9.59668C95.8805 9.59668 95.6689 9.63574 95.4834 9.71387C95.3011 9.79199 95.1465 9.9043 95.0195 10.0508C94.8926 10.1973 94.7949 10.3763 94.7266 10.5879C94.6615 10.7995 94.6289 11.0387 94.6289 11.3057V11.9746H94.4336V11.3545ZM92.2607 9.45996H92.8369V9.64551H92.2607V9.45996ZM96.2012 13.3418V12.541H96.3965V13.5273H92.2607V13.3418H96.2012ZM99.126 9.11816H98.0518V8.28809H99.126V7.30176L100.176 6.8623V8.28809H102.603V9.11816H100.176V11.4473C100.176 11.6914 100.252 11.8737 100.405 11.9941C100.558 12.1113 100.767 12.1699 101.03 12.1699H102.407V13H101.03C100.767 13 100.519 12.9723 100.288 12.917C100.057 12.8584 99.8551 12.7624 99.6826 12.6289C99.5101 12.4922 99.3734 12.3132 99.2725 12.0918C99.1748 11.8672 99.126 11.5872 99.126 11.252V9.11816ZM100.527 7.13086L100.723 7.04297V7.99512H100.527V7.13086ZM100.518 9.40625H102.954V8.50781H103.149V9.5918H100.713V11.8428C100.602 11.8135 100.537 11.7484 100.518 11.6475V9.40625ZM98.3447 9.45996H98.9307V9.64551H98.3447V9.45996ZM99.0967 12.5801C99.2008 12.7266 99.3164 12.8486 99.4434 12.9463C99.5736 13.0439 99.7184 13.1221 99.8779 13.1807C100.037 13.2393 100.212 13.2799 100.4 13.3027C100.589 13.3288 100.796 13.3418 101.021 13.3418H102.759V12.3896H102.954V13.5273H100.996C100.745 13.5273 100.518 13.5111 100.312 13.4785C100.107 13.446 99.9251 13.3923 99.7656 13.3174C99.6094 13.2458 99.4743 13.1481 99.3604 13.0244C99.2497 12.904 99.1618 12.7559 99.0967 12.5801Z" fill="white"/>
</svg>
