<svg width="106" height="12" viewBox="0 0 106 12" fill="none" xmlns="http://www.w3.org/2000/svg">
<path d="M50.3115 9H49.6377V8.58008C49.4456 8.7526 49.234 8.88444 49.0029 8.97559C48.7751 9.06673 48.5407 9.1123 48.2998 9.1123C47.9385 9.1123 47.6146 9.05371 47.3281 8.93652C47.0417 8.81934 46.7992 8.65658 46.6006 8.44824C46.4053 8.23665 46.2539 7.98438 46.1465 7.69141C46.0423 7.39844 45.9902 7.0778 45.9902 6.72949C45.9902 6.38444 46.0423 6.06543 46.1465 5.77246C46.2539 5.47624 46.4053 5.22396 46.6006 5.01562C46.7992 4.80404 47.0417 4.63965 47.3281 4.52246C47.6146 4.40202 47.9385 4.3418 48.2998 4.3418C48.5407 4.3418 48.7751 4.38574 49.0029 4.47363C49.234 4.55827 49.4456 4.68685 49.6377 4.85938V3.19922H48.7295V2.62793H50.3115V9ZM49.6377 5.50879C49.4456 5.2972 49.2357 5.14421 49.0078 5.0498C48.7832 4.9554 48.5439 4.9082 48.29 4.9082C48.0231 4.9082 47.7871 4.9554 47.582 5.0498C47.3802 5.14421 47.2109 5.27279 47.0742 5.43555C46.9375 5.59831 46.8333 5.79036 46.7617 6.01172C46.6934 6.22982 46.6592 6.46908 46.6592 6.72949C46.6592 6.98991 46.6934 7.23079 46.7617 7.45215C46.8333 7.67025 46.9375 7.86068 47.0742 8.02344C47.2109 8.1862 47.3802 8.31478 47.582 8.40918C47.7871 8.50358 48.0231 8.55078 48.29 8.55078C48.8044 8.55078 49.2536 8.34733 49.6377 7.94043V5.50879ZM52.1279 6.95898C52.1768 7.44076 52.3525 7.82487 52.6553 8.11133C52.958 8.39779 53.3519 8.54102 53.8369 8.54102C54.1787 8.54102 54.4831 8.47103 54.75 8.33105C55.0169 8.19108 55.2171 8.01693 55.3506 7.80859L55.8193 8.13086C55.5915 8.44987 55.3197 8.69401 55.0039 8.86328C54.6882 9.0293 54.2992 9.1123 53.8369 9.1123C53.4854 9.1123 53.1631 9.05371 52.8701 8.93652C52.5771 8.81934 52.3232 8.65658 52.1084 8.44824C51.8968 8.23665 51.7324 7.986 51.6152 7.69629C51.498 7.40658 51.4395 7.08431 51.4395 6.72949C51.4395 6.38444 51.4915 6.06706 51.5957 5.77734C51.7031 5.48438 51.8561 5.2321 52.0547 5.02051C52.2565 4.80566 52.5007 4.63965 52.7871 4.52246C53.0736 4.40202 53.3942 4.3418 53.749 4.3418C54.1364 4.3418 54.4749 4.4069 54.7646 4.53711C55.0544 4.66732 55.2952 4.84798 55.4873 5.0791C55.6826 5.30697 55.8258 5.5804 55.917 5.89941C56.0114 6.21842 56.0586 6.57161 56.0586 6.95898H52.1279ZM55.3506 6.3877C55.2757 5.88965 55.0951 5.51855 54.8086 5.27441C54.5221 5.03027 54.1689 4.9082 53.749 4.9082C53.5342 4.9082 53.3356 4.94401 53.1533 5.01562C52.971 5.08398 52.8099 5.18327 52.6699 5.31348C52.5299 5.44368 52.4128 5.60156 52.3184 5.78711C52.224 5.9694 52.1637 6.1696 52.1377 6.3877H55.3506ZM61.6201 4.44922L59.6475 9H58.749L56.7666 4.44922H57.5674L59.1982 8.43848L60.8193 4.44922H61.6201ZM63.0459 6.95898C63.0947 7.44076 63.2705 7.82487 63.5732 8.11133C63.876 8.39779 64.2699 8.54102 64.7549 8.54102C65.0967 8.54102 65.401 8.47103 65.668 8.33105C65.9349 8.19108 66.1351 8.01693 66.2686 7.80859L66.7373 8.13086C66.5094 8.44987 66.2376 8.69401 65.9219 8.86328C65.6061 9.0293 65.2171 9.1123 64.7549 9.1123C64.4033 9.1123 64.0811 9.05371 63.7881 8.93652C63.4951 8.81934 63.2412 8.65658 63.0264 8.44824C62.8148 8.23665 62.6504 7.986 62.5332 7.69629C62.416 7.40658 62.3574 7.08431 62.3574 6.72949C62.3574 6.38444 62.4095 6.06706 62.5137 5.77734C62.6211 5.48438 62.7741 5.2321 62.9727 5.02051C63.1745 4.80566 63.4186 4.63965 63.7051 4.52246C63.9915 4.40202 64.3122 4.3418 64.667 4.3418C65.0544 4.3418 65.3929 4.4069 65.6826 4.53711C65.9723 4.66732 66.2132 4.84798 66.4053 5.0791C66.6006 5.30697 66.7438 5.5804 66.835 5.89941C66.9294 6.21842 66.9766 6.57161 66.9766 6.95898H63.0459ZM66.2686 6.3877C66.1937 5.88965 66.013 5.51855 65.7266 5.27441C65.4401 5.03027 65.0869 4.9082 64.667 4.9082C64.4521 4.9082 64.2536 4.94401 64.0713 5.01562C63.889 5.08398 63.7279 5.18327 63.5879 5.31348C63.4479 5.44368 63.3307 5.60156 63.2363 5.78711C63.1419 5.9694 63.0817 6.1696 63.0557 6.3877H66.2686ZM71.4736 9H68.7441V8.42871H69.7744V3.19922H68.7441V2.62793H70.4482V8.42871H71.4736V9ZM77.9629 6.73926C77.9629 7.09408 77.9059 7.41634 77.792 7.70605C77.6813 7.99577 77.5202 8.24479 77.3086 8.45312C77.1003 8.6582 76.8496 8.81934 76.5566 8.93652C76.2637 9.05371 75.9365 9.1123 75.5752 9.1123C75.2204 9.1123 74.8965 9.05371 74.6035 8.93652C74.3105 8.81934 74.0583 8.6582 73.8467 8.45312C73.6383 8.24479 73.4772 7.99577 73.3633 7.70605C73.2526 7.41634 73.1973 7.09408 73.1973 6.73926C73.1973 6.39421 73.2526 6.07357 73.3633 5.77734C73.4772 5.47786 73.6383 5.22396 73.8467 5.01562C74.0583 4.80404 74.3105 4.63965 74.6035 4.52246C74.8965 4.40202 75.2204 4.3418 75.5752 4.3418C75.9365 4.3418 76.2637 4.40202 76.5566 4.52246C76.8496 4.63965 77.1003 4.80404 77.3086 5.01562C77.5202 5.22396 77.6813 5.47786 77.792 5.77734C77.9059 6.07357 77.9629 6.39421 77.9629 6.73926ZM77.2939 6.73926C77.2939 6.47884 77.2549 6.23958 77.1768 6.02148C77.1019 5.80013 76.9896 5.60645 76.8398 5.44043C76.6901 5.27441 76.5078 5.14421 76.293 5.0498C76.0814 4.9554 75.8421 4.9082 75.5752 4.9082C75.3083 4.9082 75.0674 4.9554 74.8525 5.0498C74.641 5.14421 74.4619 5.27441 74.3154 5.44043C74.1689 5.60645 74.0566 5.80013 73.9785 6.02148C73.9036 6.23958 73.8662 6.47884 73.8662 6.73926C73.8662 6.99967 73.9036 7.24056 73.9785 7.46191C74.0566 7.68001 74.1689 7.86882 74.3154 8.02832C74.4619 8.18783 74.641 8.31315 74.8525 8.4043C75.0674 8.49544 75.3083 8.54102 75.5752 8.54102C75.8421 8.54102 76.0814 8.49544 76.293 8.4043C76.5078 8.31315 76.6901 8.18783 76.8398 8.02832C76.9896 7.86882 77.1019 7.68001 77.1768 7.46191C77.2549 7.24056 77.2939 6.99967 77.2939 6.73926ZM83.3047 6.72949C83.3047 7.08431 83.2493 7.40658 83.1387 7.69629C83.028 7.986 82.8717 8.23665 82.6699 8.44824C82.4714 8.65658 82.2305 8.81934 81.9473 8.93652C81.6641 9.05371 81.3467 9.1123 80.9951 9.1123C80.7542 9.1123 80.5199 9.06836 80.292 8.98047C80.0674 8.89258 79.8574 8.76237 79.6621 8.58984V10.8213H78.9932V4.44922H79.6621V4.86914C80.0755 4.51758 80.5199 4.3418 80.9951 4.3418C81.3467 4.3418 81.6641 4.40039 81.9473 4.51758C82.2305 4.63151 82.4714 4.7959 82.6699 5.01074C82.8717 5.22233 83.028 5.47624 83.1387 5.77246C83.2493 6.06543 83.3047 6.38444 83.3047 6.72949ZM82.6357 6.72949C82.6357 6.47559 82.5999 6.23796 82.5283 6.0166C82.46 5.79199 82.3558 5.59831 82.2158 5.43555C82.0758 5.27279 81.9033 5.14421 81.6982 5.0498C81.4964 4.9554 81.262 4.9082 80.9951 4.9082C80.7412 4.9082 80.5036 4.9554 80.2822 5.0498C80.0641 5.14421 79.8574 5.2972 79.6621 5.50879V7.9502C79.8574 8.16178 80.0641 8.31315 80.2822 8.4043C80.5036 8.49544 80.7412 8.54102 80.9951 8.54102C81.262 8.54102 81.4964 8.49382 81.6982 8.39941C81.9033 8.30501 82.0758 8.17643 82.2158 8.01367C82.3558 7.85091 82.46 7.66048 82.5283 7.44238C82.5999 7.22103 82.6357 6.9834 82.6357 6.72949ZM84.8818 6.95898C84.9307 7.44076 85.1064 7.82487 85.4092 8.11133C85.7119 8.39779 86.1058 8.54102 86.5908 8.54102C86.9326 8.54102 87.237 8.47103 87.5039 8.33105C87.7708 8.19108 87.971 8.01693 88.1045 7.80859L88.5732 8.13086C88.3454 8.44987 88.0736 8.69401 87.7578 8.86328C87.4421 9.0293 87.0531 9.1123 86.5908 9.1123C86.2393 9.1123 85.917 9.05371 85.624 8.93652C85.3311 8.81934 85.0771 8.65658 84.8623 8.44824C84.6507 8.23665 84.4863 7.986 84.3691 7.69629C84.252 7.40658 84.1934 7.08431 84.1934 6.72949C84.1934 6.38444 84.2454 6.06706 84.3496 5.77734C84.457 5.48438 84.61 5.2321 84.8086 5.02051C85.0104 4.80566 85.2546 4.63965 85.541 4.52246C85.8275 4.40202 86.1481 4.3418 86.5029 4.3418C86.8903 4.3418 87.2288 4.4069 87.5186 4.53711C87.8083 4.66732 88.0492 4.84798 88.2412 5.0791C88.4365 5.30697 88.5798 5.5804 88.6709 5.89941C88.7653 6.21842 88.8125 6.57161 88.8125 6.95898H84.8818ZM88.1045 6.3877C88.0296 5.88965 87.849 5.51855 87.5625 5.27441C87.276 5.03027 86.9229 4.9082 86.5029 4.9082C86.2881 4.9082 86.0895 4.94401 85.9072 5.01562C85.7249 5.08398 85.5638 5.18327 85.4238 5.31348C85.2839 5.44368 85.1667 5.60156 85.0723 5.78711C84.9779 5.9694 84.9176 6.1696 84.8916 6.3877H88.1045ZM93.9736 5.08887C93.7327 4.96842 93.4463 4.9082 93.1143 4.9082C92.8408 4.9082 92.5967 4.9668 92.3818 5.08398C92.167 5.20117 91.9847 5.35579 91.835 5.54785C91.6852 5.73665 91.5697 5.95475 91.4883 6.20215C91.4102 6.44629 91.3711 6.69857 91.3711 6.95898V8.42871H92.4014V9H89.6719V8.42871H90.7021V5.02051H89.6719V4.44922H91.3711V5.5918C91.6771 4.75846 92.2581 4.3418 93.1143 4.3418C93.3454 4.3418 93.5456 4.35645 93.7148 4.38574C93.8874 4.41504 94.0469 4.46712 94.1934 4.54199L93.9736 5.08887Z" fill="white"/>
<rect y="1" width="42" height="11" fill="#FFFCFC"/>
<path d="M6.44336 4.50195C6.44336 4.57357 6.45638 4.63542 6.48242 4.6875C6.51497 4.73307 6.53125 4.77539 6.53125 4.81445C6.51823 4.87956 6.53125 4.95768 6.57031 5.04883C6.60938 5.13346 6.62891 5.22135 6.62891 5.3125C6.61589 5.35156 6.5638 5.40365 6.47266 5.46875C6.38802 5.52734 6.29036 5.59245 6.17969 5.66406C6.07552 5.73568 5.97135 5.80729 5.86719 5.87891C5.76953 5.94401 5.70117 5.99609 5.66211 6.03516C5.69466 6.08724 5.73372 6.12956 5.7793 6.16211C5.83138 6.19466 5.88021 6.22721 5.92578 6.25977C5.96484 6.29232 6.02018 6.34115 6.0918 6.40625C6.16992 6.46484 6.24805 6.52995 6.32617 6.60156C6.41081 6.67318 6.48568 6.74154 6.55078 6.80664C6.6224 6.87174 6.66797 6.92057 6.6875 6.95312C6.70052 6.95964 6.71029 6.98242 6.7168 7.02148C6.72982 7.06055 6.73958 7.10612 6.74609 7.1582C6.7526 7.20378 6.75586 7.24935 6.75586 7.29492C6.76237 7.34049 6.76562 7.36979 6.76562 7.38281C6.75911 7.45443 6.75911 7.50651 6.76562 7.53906C6.77865 7.57161 6.78841 7.60742 6.79492 7.64648C6.80794 7.67904 6.81771 7.71159 6.82422 7.74414C6.83073 7.77669 6.83398 7.79297 6.83398 7.79297C6.83398 7.83203 6.81445 7.86784 6.77539 7.90039C6.74284 7.93294 6.71029 7.96224 6.67773 7.98828C6.64518 8.01432 6.61263 8.04036 6.58008 8.06641C6.55404 8.09245 6.52474 8.12174 6.49219 8.1543C6.45312 8.18685 6.40755 8.2194 6.35547 8.25195C6.3099 8.27799 6.26758 8.30729 6.22852 8.33984C6.20247 8.35286 6.17969 8.3724 6.16016 8.39844C6.14062 8.41797 6.12109 8.43424 6.10156 8.44727C6.04297 8.49935 5.97786 8.55143 5.90625 8.60352C5.83464 8.64909 5.76628 8.69141 5.70117 8.73047C5.62956 8.77604 5.5612 8.82487 5.49609 8.87695C5.43099 8.92253 5.36263 8.97135 5.29102 9.02344C5.19336 9.08203 5.0957 9.14062 4.99805 9.19922C4.9069 9.2513 4.81576 9.30664 4.72461 9.36523C4.67904 9.39779 4.63346 9.43034 4.58789 9.46289C4.54883 9.49544 4.50651 9.52474 4.46094 9.55078C4.33073 9.6224 4.20052 9.69727 4.07031 9.77539C3.9401 9.85352 3.81315 9.93815 3.68945 10.0293C3.58529 10.0553 3.51042 10.0749 3.46484 10.0879C3.41927 10.1074 3.3737 10.1172 3.32812 10.1172C3.28906 10.1172 3.26302 10.1009 3.25 10.0684C3.24349 10.0423 3.22721 10.0293 3.20117 10.0293C3.10352 10.0423 3.04818 10.0423 3.03516 10.0293C3.02865 10.0228 3.01562 10.013 2.99609 10C2.89844 10.013 2.81706 10.013 2.75195 10C2.73242 9.96745 2.7194 9.92839 2.71289 9.88281C2.70638 9.83073 2.68685 9.78841 2.6543 9.75586C2.66732 9.69076 2.66732 9.62891 2.6543 9.57031C2.64779 9.51172 2.65104 9.45312 2.66406 9.39453C2.64453 9.31641 2.63477 9.24479 2.63477 9.17969C2.63477 9.09505 2.64453 9.00716 2.66406 8.91602C2.64453 8.85742 2.63477 8.79883 2.63477 8.74023C2.63477 8.68815 2.63802 8.63607 2.64453 8.58398C2.65104 8.5319 2.6543 8.47982 2.6543 8.42773C2.6543 8.36263 2.64128 8.30404 2.61523 8.25195C2.61523 8.13477 2.61198 8.02083 2.60547 7.91016C2.60547 7.79297 2.60547 7.67578 2.60547 7.55859C2.60547 7.50651 2.60547 7.45443 2.60547 7.40234C2.60547 7.35026 2.60872 7.29492 2.61523 7.23633C2.60872 7.20378 2.60547 7.15495 2.60547 7.08984C2.60547 7.05078 2.61198 7.01823 2.625 6.99219C2.63802 6.95964 2.64453 6.92708 2.64453 6.89453C2.64453 6.82292 2.63802 6.75456 2.625 6.68945C2.61849 6.62435 2.61523 6.55599 2.61523 6.48438C2.61523 6.41927 2.61849 6.35742 2.625 6.29883C2.63802 6.24023 2.64453 6.17839 2.64453 6.11328C2.625 6.08724 2.61198 6.05794 2.60547 6.02539C2.59896 5.99284 2.5957 5.96029 2.5957 5.92773C2.5957 5.90169 2.60221 5.86263 2.61523 5.81055C2.61523 5.75846 2.61198 5.70312 2.60547 5.64453C2.59896 5.58594 2.5957 5.5306 2.5957 5.47852C2.5957 5.45247 2.5957 5.42969 2.5957 5.41016C2.60221 5.39062 2.60872 5.36784 2.61523 5.3418C2.60221 5.29622 2.5957 5.25065 2.5957 5.20508C2.5957 5.15951 2.5957 5.11393 2.5957 5.06836C2.5957 5.00977 2.59896 4.95117 2.60547 4.89258C2.61198 4.82747 2.61523 4.76562 2.61523 4.70703C2.60872 4.60938 2.60872 4.53451 2.61523 4.48242C2.62826 4.42383 2.63802 4.36523 2.64453 4.30664V3.75C2.64453 3.69792 2.63802 3.64258 2.625 3.58398C2.61198 3.51888 2.60547 3.45703 2.60547 3.39844C2.60547 3.36589 2.60872 3.31706 2.61523 3.25195C2.62174 3.18685 2.63151 3.13802 2.64453 3.10547C2.73568 2.96875 2.8431 2.89062 2.9668 2.87109C2.99284 2.85807 3.01237 2.8418 3.02539 2.82227C3.03841 2.79622 3.06771 2.7832 3.11328 2.7832C3.19141 2.7181 3.24349 2.66927 3.26953 2.63672C3.29557 2.59766 3.32812 2.56185 3.36719 2.5293C3.38672 2.5293 3.40299 2.52604 3.41602 2.51953C3.43555 2.50651 3.45833 2.5 3.48438 2.5C3.52995 2.51302 3.56576 2.52604 3.5918 2.53906C3.62435 2.55208 3.6569 2.56185 3.68945 2.56836C3.81966 2.66602 3.94661 2.76367 4.07031 2.86133C4.20052 2.95247 4.33073 3.05013 4.46094 3.1543C4.51953 3.20638 4.57487 3.25846 4.62695 3.31055C4.68555 3.36263 4.74414 3.41146 4.80273 3.45703C4.83529 3.47656 4.87109 3.49609 4.91016 3.51562C4.94922 3.53516 4.98503 3.55794 5.01758 3.58398C5.08919 3.62956 5.16081 3.67839 5.23242 3.73047C5.30404 3.77604 5.37565 3.82161 5.44727 3.86719L6.15039 4.30664C6.20247 4.33919 6.2513 4.37174 6.29688 4.4043C6.34896 4.43685 6.39779 4.4694 6.44336 4.50195ZM5.04688 4.92188C4.94922 4.8763 4.85482 4.82096 4.76367 4.75586C4.67904 4.69076 4.58789 4.64193 4.49023 4.60938C4.43815 4.55729 4.38281 4.52148 4.32422 4.50195C4.26562 4.48242 4.21029 4.45312 4.1582 4.41406C4.09961 4.36198 4.04753 4.31641 4.00195 4.27734C3.95638 4.23828 3.89779 4.20247 3.82617 4.16992C3.79362 4.37174 3.76758 4.57031 3.74805 4.76562C3.73503 4.95443 3.72852 5.14648 3.72852 5.3418C3.72852 5.54362 3.74805 5.73568 3.78711 5.91797C3.85872 5.88542 3.92708 5.84961 3.99219 5.81055C4.05729 5.77148 4.1224 5.73242 4.1875 5.69336C4.21354 5.68034 4.23633 5.66732 4.25586 5.6543C4.2819 5.64128 4.3112 5.62826 4.34375 5.61523C4.3763 5.58919 4.40885 5.56315 4.44141 5.53711C4.47396 5.51107 4.50651 5.48828 4.53906 5.46875C4.61068 5.41667 4.67904 5.37109 4.74414 5.33203C4.81576 5.28646 4.88737 5.23763 4.95898 5.18555C4.99154 5.15951 5.02734 5.13997 5.06641 5.12695C5.10547 5.10742 5.14453 5.08138 5.18359 5.04883C5.17708 5.02279 5.1543 5.00326 5.11523 4.99023C5.08268 4.9707 5.0599 4.94792 5.04688 4.92188ZM4.76367 6.74805C4.74414 6.74805 4.72461 6.74479 4.70508 6.73828C4.68555 6.72526 4.66276 6.71875 4.63672 6.71875C4.55859 6.77083 4.48372 6.81641 4.41211 6.85547C4.34701 6.88802 4.27865 6.92708 4.20703 6.97266C4.17448 6.99219 4.14193 7.01497 4.10938 7.04102C4.07682 7.06706 4.04427 7.08659 4.01172 7.09961C3.92708 7.15169 3.86198 7.19727 3.81641 7.23633C3.77083 7.26888 3.73503 7.3112 3.70898 7.36328C3.72201 7.54557 3.72526 7.72786 3.71875 7.91016C3.71875 8.09245 3.71875 8.27799 3.71875 8.4668C3.71875 8.49935 3.72852 8.53516 3.74805 8.57422C3.80664 8.56771 3.91081 8.52539 4.06055 8.44727C4.21029 8.36263 4.36654 8.26823 4.5293 8.16406C4.69857 8.0599 4.85807 7.95898 5.00781 7.86133C5.16406 7.76367 5.27799 7.69206 5.34961 7.64648C5.40169 7.63346 5.46029 7.60742 5.52539 7.56836C5.59701 7.5293 5.63932 7.48372 5.65234 7.43164C5.52865 7.28841 5.38542 7.17122 5.22266 7.08008C5.0599 6.98242 4.9069 6.87174 4.76367 6.74805ZM9.54883 2.60742C9.58138 2.72461 9.61393 2.8418 9.64648 2.95898C9.67904 3.06966 9.7181 3.18034 9.76367 3.29102C9.86133 3.30404 9.91992 3.3138 9.93945 3.32031C9.96549 3.32682 9.99479 3.33659 10.0273 3.34961C10.099 3.51888 10.1413 3.70117 10.1543 3.89648C10.1738 4.08529 10.1999 4.27083 10.2324 4.45312C10.3561 4.61589 10.444 4.79167 10.4961 4.98047C10.5547 5.16276 10.6198 5.34831 10.6914 5.53711C10.7109 5.60221 10.724 5.64453 10.7305 5.66406C10.737 5.67708 10.7402 5.6901 10.7402 5.70312C10.7793 5.8138 10.8184 5.92773 10.8574 6.04492C10.8965 6.16211 10.9388 6.27604 10.9844 6.38672C11.0039 6.44531 11.0234 6.50391 11.043 6.5625C11.069 6.61458 11.0918 6.66667 11.1113 6.71875C11.1309 6.78385 11.1471 6.85221 11.1602 6.92383C11.1797 6.98893 11.1992 7.05404 11.2188 7.11914C11.2643 7.24935 11.3132 7.37956 11.3652 7.50977C11.4173 7.63997 11.4694 7.77018 11.5215 7.90039C11.541 7.94596 11.5768 8.04688 11.6289 8.20312C11.6875 8.35938 11.7461 8.52539 11.8047 8.70117C11.8633 8.87044 11.9154 9.02995 11.9609 9.17969C12.013 9.32292 12.0391 9.41081 12.0391 9.44336C12.0391 9.49544 12.0423 9.55078 12.0488 9.60938C12.0618 9.66146 12.0716 9.7168 12.0781 9.77539C12.0521 9.84049 12.0195 9.8763 11.9805 9.88281C11.9414 9.88932 11.9056 9.88607 11.873 9.87305C11.8405 9.88607 11.8079 9.89909 11.7754 9.91211C11.7493 9.92513 11.7233 9.93815 11.6973 9.95117C11.6777 9.95768 11.6615 9.96745 11.6484 9.98047C11.6354 9.99349 11.6191 10 11.5996 10C11.5215 10 11.4694 10.0065 11.4434 10.0195C11.4238 10.0391 11.3913 10.0488 11.3457 10.0488C11.2871 10.0293 11.248 10.026 11.2285 10.0391C11.2155 10.0586 11.2025 10.0716 11.1895 10.0781C11.1634 10.0911 11.1341 10.0977 11.1016 10.0977C11.069 10.0977 11.0365 10.1009 11.0039 10.1074C10.9909 10.0814 10.9779 10.0553 10.9648 10.0293C10.9583 10.0033 10.9453 9.97396 10.9258 9.94141C10.8542 9.83724 10.8021 9.73633 10.7695 9.63867C10.7435 9.54102 10.7207 9.46289 10.7012 9.4043C10.6686 9.33268 10.6393 9.26107 10.6133 9.18945C10.5938 9.11784 10.5677 9.04622 10.5352 8.97461C10.4961 8.98763 10.4603 9.00391 10.4277 9.02344C10.3952 9.03646 10.3691 9.05599 10.3496 9.08203C10.2715 9.08203 10.2324 9.0918 10.2324 9.11133C10.2324 9.13086 10.2259 9.15039 10.2129 9.16992C10.1738 9.18294 10.1413 9.19596 10.1152 9.20898C10.0957 9.22201 10.0599 9.22526 10.0078 9.21875C9.97526 9.2513 9.94271 9.2806 9.91016 9.30664C9.8776 9.32617 9.83529 9.33919 9.7832 9.3457C9.73112 9.39779 9.67578 9.44336 9.61719 9.48242C9.5651 9.51497 9.50326 9.52148 9.43164 9.50195C9.34049 9.52148 9.24935 9.54102 9.1582 9.56055C9.06706 9.57357 8.97591 9.58008 8.88477 9.58008C8.7806 9.54753 8.71549 9.51823 8.68945 9.49219C8.66341 9.46615 8.62435 9.45312 8.57227 9.45312C8.57878 9.36198 8.55924 9.30013 8.51367 9.26758C8.51367 9.24805 8.51367 9.21875 8.51367 9.17969C8.52018 9.13411 8.52995 9.10482 8.54297 9.0918C8.6276 9.05273 8.67643 9.01042 8.68945 8.96484C8.70247 8.91927 8.73828 8.88997 8.79688 8.87695C8.8099 8.85091 8.82292 8.82812 8.83594 8.80859C8.85547 8.78255 8.87174 8.75651 8.88477 8.73047C8.91732 8.71745 8.94336 8.70768 8.96289 8.70117C8.98893 8.69466 9.00846 8.67513 9.02148 8.64258C9.05404 8.64258 9.10286 8.62305 9.16797 8.58398C9.23307 8.53841 9.27539 8.5026 9.29492 8.47656C9.34701 8.45703 9.37956 8.44076 9.39258 8.42773C9.4056 8.4082 9.42188 8.39193 9.44141 8.37891C9.50651 8.38542 9.54883 8.37891 9.56836 8.35938C9.62044 8.38542 9.67904 8.39844 9.74414 8.39844C9.77018 8.39844 9.79297 8.39844 9.8125 8.39844C9.83203 8.39193 9.85482 8.38867 9.88086 8.38867C9.93294 8.33659 9.99805 8.30404 10.0762 8.29102C10.1608 8.27148 10.2292 8.23568 10.2812 8.18359C10.2617 8.13151 10.2454 8.06966 10.2324 7.99805C10.2194 7.91992 10.1966 7.85807 10.1641 7.8125C10.151 7.72786 10.1283 7.64648 10.0957 7.56836C10.0697 7.49023 10.0469 7.41536 10.0273 7.34375C9.95573 7.07031 9.87109 6.80339 9.77344 6.54297C9.67578 6.28255 9.5944 6.01562 9.5293 5.74219C9.51628 5.70964 9.5 5.67708 9.48047 5.64453C9.46745 5.60547 9.45443 5.56966 9.44141 5.53711C9.40885 5.61523 9.39258 5.66081 9.39258 5.67383C9.39258 5.68034 9.38607 5.6901 9.37305 5.70312C9.36654 5.73568 9.36003 5.76497 9.35352 5.79102C9.34701 5.81055 9.33724 5.83659 9.32422 5.86914C9.30469 5.92122 9.28516 5.97982 9.26562 6.04492C9.2526 6.10352 9.23958 6.15885 9.22656 6.21094C9.19401 6.32161 9.16471 6.4388 9.13867 6.5625C9.11263 6.67969 9.08333 6.79688 9.05078 6.91406C8.98568 7.11589 8.91732 7.31771 8.8457 7.51953C8.7806 7.71484 8.71549 7.91341 8.65039 8.11523C8.63737 8.20638 8.62109 8.27799 8.60156 8.33008C8.58854 8.37565 8.57227 8.42448 8.55273 8.47656C8.53971 8.52214 8.52669 8.56771 8.51367 8.61328C8.50716 8.65885 8.50391 8.69466 8.50391 8.7207C8.41276 8.92904 8.33464 9.14062 8.26953 9.35547C8.21094 9.57031 8.13607 9.77865 8.04492 9.98047C8.01888 9.99349 7.99609 10.0098 7.97656 10.0293C7.95703 10.0488 7.93424 10.0586 7.9082 10.0586C7.85612 10.0586 7.82682 10.0456 7.82031 10.0195C7.82031 9.99349 7.80729 9.98047 7.78125 9.98047C7.75521 9.98047 7.73242 9.98698 7.71289 10C7.69336 10.0065 7.67383 10.0163 7.6543 10.0293C7.62174 10.0163 7.58268 10.0065 7.53711 10C7.49805 10 7.46875 9.98698 7.44922 9.96094C7.40365 9.99349 7.35807 10.0098 7.3125 10.0098C7.26042 10.0098 7.20833 9.99349 7.15625 9.96094C7.11719 9.97396 7.07812 9.98047 7.03906 9.98047C7.01953 9.98047 6.99674 9.97721 6.9707 9.9707C6.94466 9.96419 6.92513 9.95443 6.91211 9.94141C6.9056 9.91536 6.90234 9.88932 6.90234 9.86328C6.90234 9.83724 6.90234 9.80794 6.90234 9.77539C6.90234 9.71029 6.89583 9.66146 6.88281 9.62891C7 9.29688 7.11393 8.96159 7.22461 8.62305C7.33529 8.27799 7.44596 7.92969 7.55664 7.57812C7.61523 7.41536 7.67057 7.25586 7.72266 7.09961C7.78125 6.94336 7.83659 6.78385 7.88867 6.62109C7.91471 6.52995 7.9375 6.44531 7.95703 6.36719C7.97656 6.28255 8.0026 6.20117 8.03516 6.12305C8.08724 5.95378 8.13932 5.78451 8.19141 5.61523C8.25 5.43945 8.30208 5.26693 8.34766 5.09766C8.3737 5.07812 8.38997 5.05534 8.39648 5.0293C8.40299 5.00326 8.41276 4.97396 8.42578 4.94141L8.41602 4.81445C8.46159 4.74935 8.49089 4.69401 8.50391 4.64844C8.52344 4.59635 8.53646 4.54427 8.54297 4.49219C8.57552 4.41406 8.60482 4.32943 8.63086 4.23828C8.6569 4.14714 8.67643 4.0625 8.68945 3.98438C8.70247 3.88021 8.70898 3.76302 8.70898 3.63281C8.71549 3.49609 8.73503 3.38216 8.76758 3.29102C8.7806 3.26497 8.79036 3.2487 8.79688 3.24219C8.8099 3.22917 8.81641 3.20638 8.81641 3.17383C8.82943 3.16081 8.84245 3.14779 8.85547 3.13477C8.875 3.11523 8.88802 3.0957 8.89453 3.07617C8.92708 3.02409 8.93685 2.97852 8.92383 2.93945C8.91732 2.90039 8.91406 2.85807 8.91406 2.8125C8.97266 2.77995 8.9987 2.75065 8.99219 2.72461C8.98568 2.69857 8.98242 2.67253 8.98242 2.64648C8.98242 2.61393 9.00195 2.58464 9.04102 2.55859C9.08659 2.52604 9.11589 2.49349 9.12891 2.46094C9.16797 2.46745 9.20703 2.47396 9.24609 2.48047C9.28516 2.48047 9.32422 2.47721 9.36328 2.4707C9.40885 2.55534 9.46419 2.59766 9.5293 2.59766L9.54883 2.60742ZM14.2266 7.33398C14.2396 7.36654 14.2884 7.43815 14.373 7.54883C14.4577 7.65299 14.5521 7.77018 14.6562 7.90039C14.7669 8.02409 14.8743 8.14453 14.9785 8.26172C15.0827 8.37891 15.1543 8.46354 15.1934 8.51562C15.3171 8.69792 15.444 8.87695 15.5742 9.05273C15.7044 9.22852 15.8281 9.41081 15.9453 9.59961C15.9779 9.63216 16.0039 9.67448 16.0234 9.72656C16.043 9.77214 16.0527 9.82096 16.0527 9.87305C16.0527 9.93164 16.0365 9.96419 16.0039 9.9707C15.9779 9.9707 15.9486 9.97721 15.916 9.99023C15.8509 10.0358 15.7923 10.0618 15.7402 10.0684C15.6882 10.0749 15.6458 10.0781 15.6133 10.0781C15.5417 10.0781 15.4635 10.0749 15.3789 10.0684C15.2943 10.0684 15.2227 10.0749 15.1641 10.0879C15.1445 10.0944 15.1217 10.1042 15.0957 10.1172C15.0697 10.1367 15.0501 10.1465 15.0371 10.1465C14.985 10.1465 14.946 10.1367 14.9199 10.1172C14.9004 10.1042 14.8711 10.0911 14.832 10.0781C14.7799 10.0195 14.7311 9.95768 14.6855 9.89258C14.6465 9.82747 14.6042 9.76237 14.5586 9.69727C14.5195 9.65169 14.4772 9.61263 14.4316 9.58008C14.3861 9.54102 14.3438 9.49544 14.3047 9.44336C14.2005 9.29362 14.0931 9.15039 13.9824 9.01367C13.8783 8.87695 13.7708 8.74023 13.6602 8.60352C13.6081 8.5319 13.5495 8.46354 13.4844 8.39844C13.4258 8.33333 13.3704 8.26823 13.3184 8.20312C13.2663 8.13151 13.2174 8.05664 13.1719 7.97852C13.1263 7.90039 13.0775 7.82552 13.0254 7.75391C12.9863 7.6888 12.931 7.61068 12.8594 7.51953C12.7878 7.42188 12.7129 7.32422 12.6348 7.22656C12.5566 7.12891 12.4753 7.03776 12.3906 6.95312C12.3125 6.86198 12.2441 6.79362 12.1855 6.74805C12.1855 6.70247 12.1725 6.66992 12.1465 6.65039C12.1204 6.63086 12.0911 6.60807 12.0586 6.58203C12.0456 6.54948 12.0293 6.52018 12.0098 6.49414C11.9902 6.46159 11.9805 6.42578 11.9805 6.38672C11.9805 6.36068 11.9837 6.33789 11.9902 6.31836C11.9967 6.29883 12.0033 6.2793 12.0098 6.25977C12.0228 6.23372 12.0293 6.21094 12.0293 6.19141C12.0358 6.16536 12.0456 6.13932 12.0586 6.11328C12.0911 6.02865 12.1367 5.95378 12.1953 5.88867C12.2604 5.82357 12.3092 5.7487 12.3418 5.66406C12.3483 5.63802 12.3516 5.61523 12.3516 5.5957C12.3516 5.56966 12.3581 5.54362 12.3711 5.51758C12.3906 5.47852 12.4199 5.43945 12.459 5.40039C12.498 5.36133 12.5339 5.31901 12.5664 5.27344C12.599 5.21484 12.6315 5.15625 12.6641 5.09766C12.6966 5.03906 12.7292 4.98047 12.7617 4.92188C12.8529 4.77214 12.9538 4.62891 13.0645 4.49219C13.1751 4.34896 13.2793 4.20898 13.377 4.07227C13.4681 3.94206 13.5527 3.8151 13.6309 3.69141C13.709 3.5612 13.7936 3.43099 13.8848 3.30078C13.9303 3.23568 13.9824 3.16406 14.041 3.08594C14.0996 3.0013 14.1582 2.91992 14.2168 2.8418C14.2819 2.76367 14.347 2.69206 14.4121 2.62695C14.4772 2.55534 14.5423 2.50326 14.6074 2.4707C14.7181 2.45768 14.7897 2.47721 14.8223 2.5293C14.8548 2.57487 14.9004 2.59766 14.959 2.59766C15.0501 2.61719 15.112 2.64648 15.1445 2.68555C15.1771 2.72461 15.2096 2.76042 15.2422 2.79297C15.3268 2.79297 15.3984 2.80924 15.457 2.8418C15.5156 2.87435 15.5742 2.92318 15.6328 2.98828C15.6068 3.0599 15.571 3.125 15.5254 3.18359C15.4863 3.24219 15.4505 3.30404 15.418 3.36914C15.3659 3.38867 15.3268 3.42122 15.3008 3.4668C15.2812 3.51237 15.2487 3.55143 15.2031 3.58398C15.1315 3.69466 15.0599 3.80534 14.9883 3.91602C14.9167 4.02018 14.8451 4.12109 14.7734 4.21875C14.7409 4.25781 14.7018 4.29036 14.6562 4.31641C14.6172 4.33594 14.5846 4.36849 14.5586 4.41406C14.5456 4.43359 14.5358 4.45638 14.5293 4.48242C14.5228 4.50195 14.513 4.52148 14.5 4.54102C14.4219 4.66471 14.334 4.78516 14.2363 4.90234C14.1387 5.01953 14.054 5.14323 13.9824 5.27344C13.9499 5.31901 13.9238 5.36784 13.9043 5.41992C13.8848 5.46549 13.862 5.51107 13.8359 5.55664C13.8099 5.5957 13.7708 5.65104 13.7188 5.72266C13.6732 5.79427 13.6243 5.86914 13.5723 5.94727C13.5267 6.01888 13.4844 6.09049 13.4453 6.16211C13.4128 6.22721 13.3965 6.28255 13.3965 6.32812C13.403 6.36068 13.4453 6.42578 13.5234 6.52344C13.6016 6.62109 13.6862 6.72526 13.7773 6.83594C13.875 6.94661 13.9661 7.05078 14.0508 7.14844C14.1419 7.24609 14.2005 7.30794 14.2266 7.33398ZM20.6328 10.0195C20.6003 10.0977 20.5319 10.1628 20.4277 10.2148C20.3822 10.1888 20.3398 10.1562 20.3008 10.1172C20.2682 10.0846 20.2259 10.0586 20.1738 10.0391C20.1348 9.96094 20.1055 9.91536 20.0859 9.90234C20.0664 9.88281 20.0436 9.86979 20.0176 9.86328C19.9785 9.83073 19.946 9.79167 19.9199 9.74609C19.8939 9.70052 19.8646 9.66146 19.832 9.62891C19.819 9.6224 19.793 9.60286 19.7539 9.57031C19.7214 9.53125 19.6855 9.49219 19.6465 9.45312C19.6074 9.41406 19.5716 9.37826 19.5391 9.3457C19.5065 9.30664 19.487 9.28711 19.4805 9.28711C19.4219 9.24805 19.3698 9.20573 19.3242 9.16016C19.3112 9.14062 19.2949 9.12109 19.2754 9.10156C19.2624 9.07552 19.2493 9.05599 19.2363 9.04297C19.1842 9.02344 19.1419 8.9974 19.1094 8.96484C19.0768 8.92578 19.0443 8.88346 19.0117 8.83789C18.9857 8.79232 18.9531 8.75326 18.9141 8.7207C18.8815 8.68164 18.8424 8.65234 18.7969 8.63281C18.7513 8.56771 18.696 8.51562 18.6309 8.47656C18.5658 8.43099 18.5104 8.37891 18.4648 8.32031C18.4258 8.27474 18.3835 8.23242 18.3379 8.19336C18.2923 8.14779 18.2435 8.10547 18.1914 8.06641C18.1654 8.02734 18.123 7.97201 18.0645 7.90039C18.0059 7.82227 17.9538 7.77995 17.9082 7.77344C17.9017 7.92318 17.8952 8.07292 17.8887 8.22266C17.8887 8.3724 17.8854 8.52214 17.8789 8.67188C17.8789 8.75 17.8789 8.83138 17.8789 8.91602C17.8854 9.00065 17.8854 9.08529 17.8789 9.16992C17.8724 9.20247 17.8626 9.23828 17.8496 9.27734C17.8431 9.3099 17.8398 9.3457 17.8398 9.38477C17.8398 9.46289 17.8333 9.51497 17.8203 9.54102C17.8138 9.56055 17.8073 9.58008 17.8008 9.59961C17.7812 9.66471 17.7617 9.74609 17.7422 9.84375C17.7292 9.9349 17.6966 10.0065 17.6445 10.0586C17.5729 10.0651 17.5176 10.0586 17.4785 10.0391C17.4655 10.0521 17.4525 10.0651 17.4395 10.0781C17.4264 10.0911 17.4069 10.0977 17.3809 10.0977C17.3678 10.0846 17.3451 10.0716 17.3125 10.0586C17.2865 10.0521 17.2669 10.0488 17.2539 10.0488C17.2214 10.0488 17.1855 10.0553 17.1465 10.0684C17.1139 10.0814 17.0814 10.0879 17.0488 10.0879C17.0163 10.0879 16.987 10.0781 16.9609 10.0586C16.9414 10.0456 16.9154 10.0391 16.8828 10.0391C16.8633 10.0391 16.8405 10.0488 16.8145 10.0684C16.7884 10.0879 16.7624 10.0977 16.7363 10.0977C16.7038 10.0977 16.6745 10.0911 16.6484 10.0781C16.6289 10.0716 16.6061 10.0651 16.5801 10.0586C16.5801 10.0391 16.5801 10.0195 16.5801 10C16.5866 9.98047 16.5866 9.96094 16.5801 9.94141L16.541 9.69727C16.5475 9.65169 16.554 9.60612 16.5605 9.56055C16.5736 9.51497 16.5833 9.47266 16.5898 9.43359C16.5964 9.32943 16.5996 9.23177 16.5996 9.14062C16.6061 9.04297 16.6094 8.94531 16.6094 8.84766C16.6094 8.67839 16.6061 8.51237 16.5996 8.34961C16.5996 8.18685 16.6029 8.02083 16.6094 7.85156C16.6159 7.79297 16.6224 7.73438 16.6289 7.67578C16.6419 7.61068 16.6484 7.54883 16.6484 7.49023C16.6484 7.32096 16.6582 7.15495 16.6777 6.99219C16.6973 6.82943 16.7135 6.66341 16.7266 6.49414C16.7396 6.36393 16.7461 6.23698 16.7461 6.11328C16.7461 5.98958 16.7461 5.86589 16.7461 5.74219C16.7461 5.5013 16.7428 5.26367 16.7363 5.0293C16.7298 4.78841 16.7266 4.55078 16.7266 4.31641C16.7266 4.23828 16.7298 4.13411 16.7363 4.00391C16.7428 3.86719 16.7363 3.76302 16.7168 3.69141C16.7233 3.5026 16.7233 3.31706 16.7168 3.13477C16.7428 3.12174 16.7559 3.10221 16.7559 3.07617C16.7624 3.05013 16.7656 3.02409 16.7656 2.99805V2.86133C16.8242 2.79622 16.873 2.76367 16.9121 2.76367C16.9447 2.76367 16.9772 2.76693 17.0098 2.77344C17.0423 2.77995 17.0749 2.79297 17.1074 2.8125C17.1921 2.79297 17.2474 2.78971 17.2734 2.80273C17.2995 2.81576 17.3288 2.82878 17.3613 2.8418C17.4134 2.83529 17.4492 2.8125 17.4688 2.77344C17.5404 2.78646 17.5762 2.80273 17.5762 2.82227C17.5762 2.8418 17.5827 2.86133 17.5957 2.88086C17.6608 2.88737 17.7031 2.88411 17.7227 2.87109C17.7487 2.85156 17.778 2.83854 17.8105 2.83203C17.8691 2.84505 17.9082 2.86133 17.9277 2.88086C17.9277 2.91992 17.9375 2.96549 17.957 3.01758C17.9766 3.06315 17.9863 3.125 17.9863 3.20312C17.9863 3.26172 17.9831 3.32031 17.9766 3.37891C17.9701 3.43099 17.9668 3.48307 17.9668 3.53516C17.9668 3.6263 17.9701 3.71419 17.9766 3.79883C17.9831 3.88346 17.9863 3.97135 17.9863 4.0625C17.9863 4.08854 17.9831 4.11458 17.9766 4.14062C17.9766 4.16016 17.9766 4.18294 17.9766 4.20898C17.9766 4.45638 17.9831 4.70703 17.9961 4.96094C18.0091 5.21484 18.0156 5.46875 18.0156 5.72266C18.0156 5.73568 18.0124 5.75521 18.0059 5.78125C17.9993 5.80078 18.0026 5.81706 18.0156 5.83008C18.1263 5.71289 18.2207 5.58919 18.2988 5.45898C18.377 5.32227 18.4616 5.1888 18.5527 5.05859C18.6309 4.96094 18.709 4.84375 18.7871 4.70703C18.8717 4.57031 18.9434 4.44661 19.002 4.33594C19.028 4.29688 19.0508 4.25781 19.0703 4.21875C19.0898 4.17969 19.1126 4.14062 19.1387 4.10156C19.1517 4.06901 19.168 4.03971 19.1875 4.01367C19.2135 3.98112 19.2331 3.94531 19.2461 3.90625C19.2786 3.85417 19.3079 3.80534 19.334 3.75977C19.36 3.70768 19.3893 3.6556 19.4219 3.60352C19.4544 3.55143 19.487 3.50586 19.5195 3.4668C19.5586 3.42122 19.5944 3.37565 19.627 3.33008C19.679 3.24544 19.7344 3.16081 19.793 3.07617C19.8516 2.98503 19.9036 2.89388 19.9492 2.80273C20.0143 2.77018 20.0729 2.73438 20.125 2.69531C20.1771 2.64974 20.2324 2.61068 20.291 2.57812C20.3561 2.66276 20.4017 2.72135 20.4277 2.75391C20.4603 2.78646 20.5026 2.80599 20.5547 2.8125C20.5677 2.83203 20.5742 2.85482 20.5742 2.88086C20.5807 2.9069 20.5938 2.92643 20.6133 2.93945C20.6914 2.94596 20.737 2.94596 20.75 2.93945C20.7695 2.97201 20.7956 2.99805 20.8281 3.01758C20.8672 3.0306 20.903 3.04362 20.9355 3.05664C20.9355 3.07617 20.9355 3.09896 20.9355 3.125C20.9355 3.14453 20.9388 3.16081 20.9453 3.17383C21.0234 3.20638 21.0625 3.26823 21.0625 3.35938C20.9388 3.58073 20.8021 3.79232 20.6523 3.99414C20.5091 4.18945 20.3822 4.40104 20.2715 4.62891C20.2389 4.70052 20.1999 4.76888 20.1543 4.83398C20.1152 4.89909 20.0827 4.96745 20.0566 5.03906C20.0111 5.08464 19.9753 5.13346 19.9492 5.18555C19.9232 5.23112 19.8906 5.27669 19.8516 5.32227C19.8255 5.35482 19.7995 5.39062 19.7734 5.42969C19.7474 5.46224 19.7214 5.49479 19.6953 5.52734C19.6432 5.59896 19.5944 5.67383 19.5488 5.75195C19.5098 5.82357 19.4609 5.89518 19.4023 5.9668C19.3633 6.0319 19.3177 6.09701 19.2656 6.16211C19.2135 6.23372 19.168 6.3151 19.1289 6.40625C19.0964 6.49089 19.054 6.56901 19.002 6.64062C18.9499 6.71875 18.9206 6.77734 18.9141 6.81641C18.9141 6.84896 18.8978 6.90755 18.8652 6.99219C18.9108 7.0638 18.9629 7.12891 19.0215 7.1875C19.0801 7.24609 19.1419 7.30143 19.207 7.35352C19.2591 7.42513 19.3177 7.49023 19.3828 7.54883C19.4544 7.60091 19.526 7.65951 19.5977 7.72461C19.6237 7.75065 19.6465 7.77669 19.666 7.80273C19.6855 7.82227 19.7083 7.8418 19.7344 7.86133C19.806 7.93945 19.8906 8.01432 19.9883 8.08594C20.0924 8.15755 20.1901 8.22591 20.2812 8.29102C20.3529 8.35612 20.4408 8.4375 20.5449 8.53516C20.6556 8.6263 20.7695 8.72721 20.8867 8.83789C21.0039 8.94206 21.1081 9.04297 21.1992 9.14062C21.2904 9.23177 21.3359 9.29036 21.3359 9.31641C21.3034 9.41406 21.2643 9.47591 21.2188 9.50195C21.1797 9.52148 21.1504 9.55404 21.1309 9.59961C21.0918 9.61263 21.0723 9.62565 21.0723 9.63867C21.0723 9.65169 21.0625 9.67448 21.043 9.70703C20.9974 9.73958 20.9583 9.77865 20.9258 9.82422C20.8932 9.86328 20.8607 9.90234 20.8281 9.94141C20.8021 9.95443 20.776 9.96745 20.75 9.98047C20.7305 9.98698 20.7142 10.0033 20.7012 10.0293L20.6328 10.0195ZM25.5352 6.32812C25.5677 6.39323 25.584 6.43555 25.584 6.45508C25.5905 6.47461 25.5905 6.49089 25.584 6.50391C25.571 6.5625 25.571 6.60156 25.584 6.62109L25.5547 6.78711C25.5417 6.8457 25.5482 6.88802 25.5742 6.91406C25.5612 6.95312 25.5547 6.99219 25.5547 7.03125C25.5547 7.0638 25.5482 7.09635 25.5352 7.12891C25.418 7.13542 25.3301 7.13542 25.2715 7.12891C25.2194 7.1224 25.1673 7.11914 25.1152 7.11914C24.9785 7.11914 24.8385 7.11914 24.6953 7.11914C24.5586 7.11263 24.4219 7.09961 24.2852 7.08008C23.9987 7.06706 23.7383 7.06055 23.5039 7.06055C23.3932 7.05404 23.2826 7.04753 23.1719 7.04102C23.0677 7.03451 22.9635 7.03125 22.8594 7.03125C22.7227 7.01823 22.6022 7.01172 22.498 7.01172C22.3939 7.00521 22.2962 7.00195 22.2051 7.00195C22.153 7.00195 22.0977 7.00521 22.0391 7.01172C21.987 7.01823 21.9284 7.02148 21.8633 7.02148C21.7982 7.02148 21.7331 7.02148 21.668 7.02148C21.6094 7.01497 21.5443 7.01172 21.4727 7.01172C21.4596 6.96615 21.4564 6.93034 21.4629 6.9043C21.4694 6.87826 21.4727 6.8457 21.4727 6.80664C21.4466 6.76107 21.4303 6.71549 21.4238 6.66992C21.4173 6.62435 21.4141 6.57878 21.4141 6.5332C21.4141 6.50065 21.4141 6.46484 21.4141 6.42578C21.4206 6.38672 21.4271 6.35091 21.4336 6.31836C21.4206 6.29883 21.4076 6.2793 21.3945 6.25977C21.388 6.24023 21.3848 6.22396 21.3848 6.21094C21.3978 6.15885 21.4076 6.12305 21.4141 6.10352C21.4336 6.09049 21.4531 6.08073 21.4727 6.07422C21.4987 6.0612 21.5182 6.04492 21.5312 6.02539C21.6549 6.00586 21.7819 5.99935 21.9121 6.00586C22.0423 6.00586 22.1693 6.00586 22.293 6.00586C22.3971 6.00586 22.498 6.00911 22.5957 6.01562C22.6934 6.02214 22.7943 6.02865 22.8984 6.03516C23.0221 6.04818 23.1458 6.05469 23.2695 6.05469C23.3997 6.05469 23.5299 6.05469 23.6602 6.05469C23.7773 6.05469 23.8945 6.0612 24.0117 6.07422C24.1354 6.08724 24.2526 6.09375 24.3633 6.09375C24.7409 6.09375 25.125 6.11328 25.5156 6.15234C25.5286 6.23047 25.5352 6.28906 25.5352 6.32812ZM27.7227 7.44141C27.7357 7.47396 27.7812 7.54232 27.8594 7.64648C27.944 7.75065 28.0384 7.86458 28.1426 7.98828C28.2467 8.11198 28.3444 8.23242 28.4355 8.34961C28.5332 8.46029 28.6016 8.54167 28.6406 8.59375C28.7122 8.6849 28.7806 8.77604 28.8457 8.86719C28.9173 8.95182 28.9824 9.04297 29.041 9.14062L29.2168 9.43359C29.2689 9.4987 29.3145 9.55404 29.3535 9.59961C29.3991 9.64518 29.4349 9.70703 29.4609 9.78516C29.474 9.83724 29.4805 9.87305 29.4805 9.89258C29.4805 9.93815 29.4642 9.9707 29.4316 9.99023C29.3796 9.99023 29.3503 9.99674 29.3438 10.0098C29.3438 10.0293 29.3307 10.0456 29.3047 10.0586C29.2786 10.0716 29.2363 10.0781 29.1777 10.0781C29.1257 10.0846 29.0833 10.0879 29.0508 10.0879C28.9922 10.0879 28.9173 10.0846 28.8262 10.0781C28.7415 10.0781 28.6732 10.0879 28.6211 10.1074C28.6081 10.1139 28.5885 10.1237 28.5625 10.1367C28.5365 10.1497 28.5169 10.1562 28.5039 10.1562C28.4518 10.1562 28.4128 10.1465 28.3867 10.127C28.3672 10.1139 28.3379 10.1042 28.2988 10.0977C28.2467 10.0391 28.2012 9.98047 28.1621 9.92188C28.1296 9.85677 28.0905 9.79167 28.0449 9.72656C27.9993 9.68099 27.9538 9.64193 27.9082 9.60938C27.8626 9.57031 27.8236 9.52799 27.791 9.48242C27.6934 9.33919 27.5924 9.19922 27.4883 9.0625C27.3841 8.92578 27.2767 8.79232 27.166 8.66211C27.1139 8.59049 27.0586 8.52539 27 8.4668C26.9414 8.4082 26.8861 8.3431 26.834 8.27148C26.7819 8.20638 26.7331 8.13802 26.6875 8.06641C26.6419 7.98828 26.5964 7.91341 26.5508 7.8418C26.5117 7.7832 26.4596 7.70833 26.3945 7.61719C26.3294 7.51953 26.2578 7.42513 26.1797 7.33398C26.1016 7.23633 26.0234 7.14518 25.9453 7.06055C25.8672 6.97591 25.8021 6.91081 25.75 6.86523C25.7435 6.82617 25.7272 6.79688 25.7012 6.77734C25.6751 6.7513 25.6458 6.72852 25.6133 6.70898C25.6003 6.67643 25.5872 6.64714 25.5742 6.62109C25.5547 6.58854 25.5449 6.55599 25.5449 6.52344C25.5449 6.47786 25.5547 6.43555 25.5742 6.39648C25.5872 6.37044 25.597 6.34766 25.6035 6.32812C25.6035 6.30208 25.61 6.27604 25.623 6.25C25.6556 6.17839 25.6979 6.11003 25.75 6.04492C25.8086 5.97331 25.8542 5.89844 25.8867 5.82031C25.8997 5.80078 25.9062 5.78125 25.9062 5.76172C25.9062 5.73568 25.9128 5.71289 25.9258 5.69336C25.9388 5.64128 25.9648 5.59896 26.0039 5.56641C26.0495 5.52734 26.0853 5.48503 26.1113 5.43945C26.1439 5.38737 26.1732 5.33529 26.1992 5.2832C26.2318 5.22461 26.2643 5.16276 26.2969 5.09766C26.3945 4.9349 26.4954 4.77865 26.5996 4.62891C26.7103 4.47266 26.821 4.31641 26.9316 4.16016C27.0163 4.02995 27.0977 3.90625 27.1758 3.78906C27.2604 3.66536 27.3451 3.54167 27.4297 3.41797C27.4753 3.35938 27.5241 3.29102 27.5762 3.21289C27.6283 3.13477 27.6836 3.05664 27.7422 2.97852C27.8073 2.90039 27.8724 2.82878 27.9375 2.76367C28.0026 2.69857 28.0677 2.64648 28.1328 2.60742C28.2305 2.60091 28.2956 2.6237 28.3281 2.67578C28.3607 2.72135 28.4095 2.74414 28.4746 2.74414C28.5592 2.76367 28.6146 2.78971 28.6406 2.82227C28.6667 2.85482 28.696 2.88737 28.7285 2.91992C28.8197 2.91992 28.8913 2.9362 28.9434 2.96875C29.002 3.0013 29.0573 3.05013 29.1094 3.11523C29.0898 3.18685 29.0605 3.25195 29.0215 3.31055C28.9824 3.36263 28.9466 3.41797 28.9141 3.47656C28.862 3.5026 28.8229 3.53841 28.7969 3.58398C28.7773 3.62956 28.7448 3.66536 28.6992 3.69141C28.6341 3.80208 28.5658 3.90951 28.4941 4.01367C28.4225 4.11133 28.3509 4.20898 28.2793 4.30664C28.2402 4.36523 28.1979 4.41732 28.1523 4.46289C28.1133 4.50846 28.0775 4.55729 28.0449 4.60938C28.0319 4.62891 28.0189 4.65169 28.0059 4.67773C27.9993 4.69727 27.9896 4.7168 27.9766 4.73633C27.8984 4.86003 27.8138 4.97721 27.7227 5.08789C27.6315 5.19206 27.5469 5.30924 27.4688 5.43945C27.4427 5.48503 27.4199 5.53385 27.4004 5.58594C27.3874 5.63151 27.3678 5.67708 27.3418 5.72266C27.3158 5.76172 27.2767 5.8138 27.2246 5.87891C27.179 5.94401 27.1335 6.01562 27.0879 6.09375C27.0423 6.16536 27 6.23698 26.9609 6.30859C26.9284 6.3737 26.9121 6.42904 26.9121 6.47461C26.9186 6.50716 26.9577 6.57227 27.0293 6.66992C27.1074 6.76107 27.1921 6.86198 27.2832 6.97266C27.3809 7.07682 27.472 7.17773 27.5566 7.27539C27.6413 7.36654 27.6966 7.42188 27.7227 7.44141ZM28.3672 5.66406C28.4128 5.76172 28.4616 5.84635 28.5137 5.91797C28.5332 5.94401 28.556 5.9668 28.582 5.98633C28.6081 6.00586 28.6276 6.0319 28.6406 6.06445C28.6536 6.07747 28.6667 6.10677 28.6797 6.15234C28.6927 6.19141 28.7057 6.2207 28.7188 6.24023C28.7383 6.29232 28.7773 6.35091 28.8359 6.41602C28.8945 6.48112 28.9238 6.53971 28.9238 6.5918C28.9238 6.62435 28.9173 6.66016 28.9043 6.69922C28.8913 6.73828 28.8815 6.77409 28.875 6.80664C28.8685 6.8457 28.8652 6.88802 28.8652 6.93359C28.8652 6.97266 28.8522 7.00846 28.8262 7.04102C28.7936 7.07357 28.7578 7.0931 28.7188 7.09961C28.6797 7.10612 28.6439 7.1224 28.6113 7.14844C28.5983 7.16146 28.5788 7.18424 28.5527 7.2168C28.5267 7.24935 28.5007 7.28516 28.4746 7.32422C28.4486 7.36328 28.4225 7.40234 28.3965 7.44141C28.377 7.47396 28.3672 7.5 28.3672 7.51953C28.2891 7.52604 28.237 7.5293 28.2109 7.5293C28.1914 7.52279 28.1686 7.52279 28.1426 7.5293C28.11 7.49674 28.0742 7.4707 28.0352 7.45117C28.0026 7.42513 27.9603 7.40234 27.9082 7.38281C27.8952 7.33073 27.8659 7.27214 27.8203 7.20703C27.7747 7.13542 27.7357 7.07682 27.7031 7.03125L27.6348 6.94336C27.5371 6.80664 27.446 6.67643 27.3613 6.55273C27.2832 6.42253 27.2246 6.2793 27.1855 6.12305C27.3092 6.0319 27.4036 5.96354 27.4688 5.91797C27.5404 5.8724 27.6152 5.83008 27.6934 5.79102C27.7715 5.75195 27.8464 5.71615 27.918 5.68359C27.9961 5.64453 28.0677 5.59896 28.1328 5.54688C28.1849 5.54688 28.2207 5.55013 28.2402 5.55664C28.2598 5.56315 28.2728 5.56966 28.2793 5.57617C28.2858 5.58268 28.2923 5.5957 28.2988 5.61523C28.3118 5.62826 28.3346 5.64453 28.3672 5.66406ZM33.2793 2.71484C33.3835 2.70182 33.4616 2.71159 33.5137 2.74414C33.5723 2.77018 33.6309 2.78646 33.6895 2.79297C33.722 2.79948 33.7546 2.80273 33.7871 2.80273C33.8262 2.79622 33.8652 2.79297 33.9043 2.79297C33.9889 2.79297 34.054 2.80273 34.0996 2.82227C34.1517 2.8418 34.2038 2.88411 34.2559 2.94922C34.2689 2.96224 34.2852 2.98177 34.3047 3.00781C34.3307 3.02734 34.3438 3.04688 34.3438 3.06641C34.3438 3.11849 34.3307 3.16406 34.3047 3.20312C34.2786 3.24219 34.2656 3.29753 34.2656 3.36914C34.2656 3.47982 34.2786 3.59049 34.3047 3.70117C34.3307 3.80534 34.347 3.91276 34.3535 4.02344C34.3861 4.42708 34.4023 4.83398 34.4023 5.24414C34.4089 5.64779 34.4121 6.04818 34.4121 6.44531C34.4121 6.4974 34.4089 6.54622 34.4023 6.5918C34.4023 6.63086 34.3893 6.66667 34.3633 6.69922V6.82617C34.3568 6.99544 34.36 7.16797 34.373 7.34375C34.3861 7.51302 34.3926 7.68229 34.3926 7.85156C34.3926 8.0013 34.3828 8.15104 34.3633 8.30078C34.3503 8.45052 34.3438 8.60352 34.3438 8.75977C34.3438 8.90299 34.3535 9.04297 34.373 9.17969C34.3926 9.31641 34.4023 9.45638 34.4023 9.59961C34.3698 9.6582 34.3503 9.70378 34.3438 9.73633C34.3372 9.76888 34.3242 9.79818 34.3047 9.82422C34.2852 9.83724 34.2624 9.84049 34.2363 9.83398C34.2168 9.82747 34.2005 9.83398 34.1875 9.85352C34.1549 9.89258 34.1322 9.93815 34.1191 9.99023C34.1061 10.0423 34.0736 10.0846 34.0215 10.1172C34.0085 10.2083 33.9727 10.2767 33.9141 10.3223C33.862 10.3743 33.8229 10.4395 33.7969 10.5176C33.7188 10.5241 33.6634 10.5208 33.6309 10.5078C33.6048 10.4948 33.5755 10.4818 33.543 10.4688C33.5365 10.3581 33.5365 10.2767 33.543 10.2246C33.556 10.179 33.5625 10.1302 33.5625 10.0781C33.5625 10.013 33.5462 9.96419 33.5137 9.93164C33.4811 9.89909 33.4583 9.85677 33.4453 9.80469C33.3737 9.75911 33.3249 9.72982 33.2988 9.7168C33.2728 9.69727 33.25 9.67448 33.2305 9.64844C33.1914 9.59635 33.1589 9.54102 33.1328 9.48242C33.1068 9.42383 33.0775 9.36849 33.0449 9.31641C32.9538 9.16667 32.8594 9.01367 32.7617 8.85742C32.6706 8.70117 32.5697 8.54818 32.459 8.39844C32.4395 8.36589 32.4167 8.33659 32.3906 8.31055C32.3646 8.28451 32.3418 8.25521 32.3223 8.22266C32.2116 8.04688 32.1074 7.86784 32.0098 7.68555C31.9121 7.50326 31.7982 7.33073 31.668 7.16797C31.6159 7.10286 31.5768 7.03125 31.5508 6.95312C31.5247 6.86849 31.4857 6.79688 31.4336 6.73828C31.4271 6.77083 31.4238 6.80664 31.4238 6.8457C31.4238 6.88477 31.4238 6.92057 31.4238 6.95312C31.4238 7.17448 31.4271 7.39583 31.4336 7.61719C31.4466 7.83203 31.4531 8.05013 31.4531 8.27148C31.4531 8.31706 31.4466 8.35938 31.4336 8.39844C31.4271 8.43099 31.4238 8.47005 31.4238 8.51562C31.4238 8.58073 31.4271 8.64258 31.4336 8.70117C31.4401 8.75977 31.4434 8.81836 31.4434 8.87695C31.4434 8.94857 31.4401 9.01693 31.4336 9.08203C31.4336 9.14714 31.4303 9.21224 31.4238 9.27734C31.4108 9.36198 31.3945 9.44336 31.375 9.52148C31.3555 9.5931 31.3457 9.66797 31.3457 9.74609C31.3457 9.79167 31.349 9.83398 31.3555 9.87305C31.3685 9.91211 31.375 9.94792 31.375 9.98047C31.3294 10.0521 31.2708 10.0879 31.1992 10.0879C31.1341 10.0879 31.0788 10.1139 31.0332 10.166C30.9941 10.1595 30.9616 10.1628 30.9355 10.1758C30.916 10.1888 30.8965 10.1953 30.877 10.1953C30.8509 10.1953 30.8281 10.1921 30.8086 10.1855C30.7956 10.179 30.7793 10.1758 30.7598 10.1758C30.7272 10.1758 30.6947 10.1921 30.6621 10.2246C30.6296 10.2572 30.597 10.2734 30.5645 10.2734C30.5449 10.2734 30.5091 10.2604 30.457 10.2344C30.4115 10.2083 30.3594 10.1758 30.3008 10.1367C30.2487 10.1042 30.1999 10.0684 30.1543 10.0293C30.1087 9.99674 30.0859 9.9707 30.0859 9.95117C30.0794 9.91862 30.0762 9.87305 30.0762 9.81445C30.0762 9.73633 30.0794 9.66146 30.0859 9.58984C30.099 9.51172 30.112 9.43359 30.125 9.35547C30.1445 9.13411 30.1543 8.91602 30.1543 8.70117C30.1543 8.47982 30.1543 8.25846 30.1543 8.03711C30.1543 7.94596 30.1543 7.85482 30.1543 7.76367C30.1608 7.67253 30.1641 7.58138 30.1641 7.49023C30.1641 7.27539 30.1543 7.06055 30.1348 6.8457C30.1217 6.62435 30.1152 6.40625 30.1152 6.19141C30.1152 6.04167 30.1217 5.89518 30.1348 5.75195C30.1478 5.60221 30.1543 5.45573 30.1543 5.3125C30.1543 5.20182 30.151 5.0944 30.1445 4.99023C30.138 4.88607 30.1348 4.77865 30.1348 4.66797C30.1283 4.59635 30.1283 4.52148 30.1348 4.44336C30.1413 4.35872 30.1445 4.2806 30.1445 4.20898C30.1445 4.12435 30.1315 4.04622 30.1055 3.97461C30.0859 3.89648 30.0762 3.82487 30.0762 3.75977C30.0762 3.7207 30.0827 3.6849 30.0957 3.65234C30.1152 3.61328 30.125 3.57422 30.125 3.53516C30.125 3.48307 30.1152 3.43099 30.0957 3.37891C30.0827 3.32682 30.0762 3.27474 30.0762 3.22266C30.0762 3.17057 30.0827 3.12174 30.0957 3.07617C30.1087 3.0306 30.1152 2.98177 30.1152 2.92969C30.2064 2.88411 30.2878 2.86133 30.3594 2.86133C30.431 2.86133 30.4831 2.88737 30.5156 2.93945C30.5156 3.05664 30.5221 3.14779 30.5352 3.21289C30.5482 3.27148 30.5579 3.33333 30.5645 3.39844C30.5645 3.4375 30.5612 3.48307 30.5547 3.53516C30.5547 3.58724 30.5579 3.63932 30.5645 3.69141C30.571 3.73698 30.584 3.77604 30.6035 3.80859C30.6296 3.84115 30.6719 3.85742 30.7305 3.85742C30.7435 3.88997 30.7598 3.91927 30.7793 3.94531C30.7988 3.97135 30.8118 4.00391 30.8184 4.04297C30.8574 4.01693 30.8802 3.98112 30.8867 3.93555C30.8932 3.88997 30.8932 3.84766 30.8867 3.80859C30.9193 3.82161 30.9486 3.82812 30.9746 3.82812C31.0007 3.82161 31.0267 3.82487 31.0527 3.83789C31.0658 3.92904 31.082 4.01042 31.1016 4.08203C31.1211 4.14714 31.1276 4.22526 31.1211 4.31641C31.2513 4.41406 31.362 4.55404 31.4531 4.73633C31.5508 4.91211 31.6419 5.07161 31.7266 5.21484C31.7721 5.28646 31.8242 5.35482 31.8828 5.41992C31.9479 5.47852 31.9967 5.55013 32.0293 5.63477C32.0814 5.66732 32.1237 5.70964 32.1562 5.76172C32.1888 5.8138 32.2181 5.86589 32.2441 5.91797C32.3743 6.14583 32.5176 6.36719 32.6738 6.58203C32.8301 6.79688 32.9928 7.00846 33.1621 7.2168C33.1686 7.17122 33.1719 7.12891 33.1719 7.08984C33.1719 7.04427 33.1719 6.9987 33.1719 6.95312L33.1621 6.07422C33.1621 6.02214 33.1589 5.97331 33.1523 5.92773C33.1523 5.88216 33.1491 5.83333 33.1426 5.78125C33.1296 5.61198 33.1263 5.44596 33.1328 5.2832C33.1393 5.12044 33.1393 4.95443 33.1328 4.78516C33.1198 4.60938 33.11 4.43034 33.1035 4.24805C33.1035 4.06576 33.097 3.88346 33.084 3.70117C33.0775 3.59049 33.071 3.47982 33.0645 3.36914C33.0579 3.25846 33.0547 3.14779 33.0547 3.03711C33.0547 2.90039 33.0677 2.77669 33.0938 2.66602C33.1068 2.65299 33.1198 2.64323 33.1328 2.63672C33.1523 2.6237 33.1751 2.61719 33.2012 2.61719C33.2402 2.61719 33.2663 2.64974 33.2793 2.71484ZM35.6426 10.1172C35.6165 10.0911 35.6035 10.0553 35.6035 10.0098C35.6035 9.97721 35.6035 9.95117 35.6035 9.93164C35.61 9.9056 35.6165 9.8763 35.623 9.84375C35.6556 9.69401 35.6719 9.54427 35.6719 9.39453C35.6719 9.23828 35.6784 9.08529 35.6914 8.93555C35.6979 8.8444 35.7012 8.75326 35.7012 8.66211C35.7077 8.57096 35.7109 8.47982 35.7109 8.38867C35.7109 7.84831 35.6947 7.3112 35.6621 6.77734C35.6296 6.23698 35.6133 5.69336 35.6133 5.14648C35.6133 4.76888 35.6198 4.39128 35.6328 4.01367C35.6458 3.62956 35.6556 3.24544 35.6621 2.86133C35.7207 2.82878 35.7923 2.81576 35.877 2.82227C35.9616 2.82878 36.0299 2.79948 36.082 2.73438C36.1146 2.72786 36.1471 2.72786 36.1797 2.73438C36.2122 2.73438 36.2448 2.73438 36.2773 2.73438C36.349 2.73438 36.4173 2.71159 36.4824 2.66602C36.5475 2.62044 36.6191 2.58138 36.6973 2.54883C36.7363 2.56185 36.7624 2.56836 36.7754 2.56836C36.7949 2.56185 36.8145 2.55859 36.834 2.55859C36.8535 2.55859 36.8958 2.58138 36.9609 2.62695C37.026 2.67253 37.0977 2.72461 37.1758 2.7832C37.2539 2.8418 37.3255 2.89714 37.3906 2.94922C37.4622 3.0013 37.5078 3.03385 37.5273 3.04688C37.6901 3.17057 37.8333 3.30729 37.957 3.45703C38.0872 3.60026 38.2142 3.74674 38.3379 3.89648C38.4551 4.04622 38.582 4.19922 38.7188 4.35547C38.8555 4.50521 38.9889 4.64518 39.1191 4.77539C39.1647 4.82747 39.2103 4.87305 39.2559 4.91211C39.3079 4.95117 39.3568 4.99674 39.4023 5.04883C39.4219 5.07487 39.4382 5.10417 39.4512 5.13672C39.4707 5.16276 39.4902 5.19206 39.5098 5.22461C39.5488 5.27018 39.5944 5.30924 39.6465 5.3418C39.6986 5.37435 39.7474 5.41341 39.793 5.45898C39.8255 5.48503 39.8743 5.53711 39.9395 5.61523C40.0046 5.69336 40.0371 5.75195 40.0371 5.79102C40.0371 5.81706 40.0306 5.83984 40.0176 5.85938C40.0046 5.87891 39.9915 5.90169 39.9785 5.92773C39.972 5.94727 39.9688 5.97656 39.9688 6.01562C39.9688 6.05469 39.9655 6.08073 39.959 6.09375C39.8939 6.14583 39.8581 6.17839 39.8516 6.19141C39.8451 6.20443 39.8353 6.21745 39.8223 6.23047C39.8027 6.25651 39.7767 6.2793 39.7441 6.29883C39.7181 6.31185 39.6986 6.33464 39.6855 6.36719C39.6725 6.38672 39.666 6.40625 39.666 6.42578C39.6725 6.44531 39.6693 6.4681 39.6562 6.49414C39.6237 6.56576 39.5716 6.63411 39.5 6.69922C39.4284 6.76432 39.3665 6.83594 39.3145 6.91406C39.2428 7.03125 39.1712 7.14844 39.0996 7.26562C39.028 7.38281 38.9466 7.49674 38.8555 7.60742C38.8164 7.65951 38.7741 7.71159 38.7285 7.76367C38.6895 7.80924 38.6504 7.85807 38.6113 7.91016C38.5788 7.94922 38.5495 7.99154 38.5234 8.03711C38.4974 8.07617 38.4681 8.12174 38.4355 8.17383C38.3639 8.26497 38.2956 8.35612 38.2305 8.44727C38.1654 8.5319 38.097 8.61979 38.0254 8.71094C37.9473 8.82161 37.8626 8.93229 37.7715 9.04297C37.6803 9.14714 37.599 9.25456 37.5273 9.36523C37.4557 9.48242 37.3809 9.58984 37.3027 9.6875C37.2246 9.78516 37.14 9.87956 37.0488 9.9707C37.0228 9.99023 36.9902 10.0195 36.9512 10.0586C36.9121 10.0977 36.873 10.1172 36.834 10.1172C36.8079 10.1172 36.7852 10.1074 36.7656 10.0879C36.7526 10.0684 36.7298 10.0586 36.6973 10.0586C36.6908 10.0586 36.6712 10.0618 36.6387 10.0684C36.6061 10.0749 36.5671 10.0814 36.5215 10.0879L36.3457 10.1074C36.2415 10.1595 36.1667 10.1823 36.1211 10.1758C36.0755 10.1758 36.0299 10.179 35.9844 10.1855C35.9583 10.1921 35.9355 10.2018 35.916 10.2148C35.903 10.2279 35.8867 10.2344 35.8672 10.2344C35.8216 10.2344 35.7858 10.2116 35.7598 10.166C35.7337 10.127 35.6947 10.1107 35.6426 10.1172ZM38.5723 5.89844C38.5723 5.86589 38.5397 5.82031 38.4746 5.76172C38.416 5.70312 38.3704 5.66081 38.3379 5.63477C38.2923 5.5957 38.237 5.5599 38.1719 5.52734C38.1133 5.48828 38.0645 5.44596 38.0254 5.40039C37.9928 5.36133 37.9603 5.32227 37.9277 5.2832C37.9017 5.23763 37.8724 5.19531 37.8398 5.15625C37.7227 5.02604 37.6022 4.89583 37.4785 4.76562C37.3613 4.63542 37.2572 4.49219 37.166 4.33594C37.1074 4.29688 37.0521 4.2513 37 4.19922C36.9479 4.14714 36.8861 4.10482 36.8145 4.07227C36.8014 4.11133 36.7949 4.15365 36.7949 4.19922C36.8014 4.23828 36.8047 4.27734 36.8047 4.31641C36.8047 4.46615 36.7982 4.61263 36.7852 4.75586C36.7721 4.89909 36.7656 5.04232 36.7656 5.18555C36.7656 5.53711 36.7721 5.88542 36.7852 6.23047C36.8047 6.56901 36.8145 6.91081 36.8145 7.25586C36.8145 7.38607 36.8145 7.51628 36.8145 7.64648C36.821 7.77669 36.834 7.9069 36.8535 8.03711C36.8405 8.07617 36.834 8.11198 36.834 8.14453C36.834 8.17708 36.8405 8.2194 36.8535 8.27148C36.9056 8.23893 36.9479 8.19987 36.9805 8.1543C37.0195 8.10221 37.0553 8.05339 37.0879 8.00781C37.1986 7.86458 37.306 7.72135 37.4102 7.57812C37.5208 7.42839 37.6315 7.27865 37.7422 7.12891C37.8138 7.03125 37.8854 6.93685 37.957 6.8457C38.0352 6.74805 38.11 6.64714 38.1816 6.54297C38.2012 6.51693 38.2305 6.47135 38.2695 6.40625C38.3151 6.34115 38.3574 6.27604 38.3965 6.21094C38.4421 6.13932 38.4811 6.07422 38.5137 6.01562C38.5527 5.95703 38.5723 5.91797 38.5723 5.89844Z" fill="#151515"/>
</svg>
